<svg id='Programming_24' viewBox='0 0 24 24' xmlns='http://www.w3.org/2000/svg'
    xmlns:xlink='http://www.w3.org/1999/xlink'>
    <rect width='24' height='24' stroke='none' fill='#fff' opacity='0' />


    <g transform="matrix(0.71 0 0 0.71 12 12)">
        <path
            style="stroke: none; stroke-width: 1; stroke-dasharray: none; stroke-linecap: butt; stroke-dashoffset: 0; stroke-linejoin: miter; stroke-miterlimit: 4; fill: #fff; fill-rule: nonzero; opacity: 1;"
            transform=" translate(-16, -17)"
            d="M 2 6 L 2 7 L 2 24 L 15 24 L 15 26 L 10 26 L 10 28 L 22 28 L 22 26 L 17 26 L 17 24 L 30 24 L 30 6 L 2 6 z M 4 8 L 28 8 L 28 22 L 4 22 L 4 8 z M 16 10 L 14 20 L 16 20 L 18 10 L 16 10 z M 11.199219 10.400391 L 7.75 15 L 11.199219 19.599609 L 12.800781 18.400391 L 10.25 15 L 12.800781 11.599609 L 11.199219 10.400391 z M 20.800781 10.400391 L 19.199219 11.599609 L 21.75 15 L 19.199219 18.400391 L 20.800781 19.599609 L 24.25 15 L 20.800781 10.400391 z"
            stroke-linecap="round" />
    </g>
</svg>