<svg id='Coding_Apps_Website_Apps_Browser_24' width='24' height='24' viewBox='0 0 24 24'
    xmlns='http://www.w3.org/2000/svg' xmlns:xlink='http://www.w3.org/1999/xlink'>
    <rect width='24' height='24' stroke='none' fill='#000000' opacity='0' />


    <g transform="matrix(0.83 0 0 0.83 12 12)">
        <g style="">
            <g transform="matrix(1 0 0 1 -0.25 -1.66)">
                <path
                    style="stroke: #fff; stroke-width: 1.2; stroke-dasharray: none; stroke-linecap: round; stroke-dashoffset: 0; stroke-linejoin: round; stroke-miterlimit: 4; fill: none; fill-rule: nonzero; opacity: 1;"
                    transform=" translate(-11.75, -10.34)"
                    d="M 7.75 19.9 L 2.75 19.9 C 1.645430500338413 19.9 0.75 19.004569499661585 0.75 17.9 L 0.75 2.773 C 0.75 1.6684305003384132 1.645430500338413 0.7730000000000001 2.75 0.7730000000000001 L 20.75 0.7730000000000001 C 21.854569499661586 0.7730000000000001 22.75 1.6684305003384128 22.75 2.7729999999999997 L 22.75 9.4"
                    stroke-linecap="round" />
            </g>
            <g transform="matrix(1 0 0 1 -0.25 -6.45)">
                <line
                    style="stroke: #fff; stroke-width: 1.2; stroke-dasharray: none; stroke-linecap: round; stroke-dashoffset: 0; stroke-linejoin: round; stroke-miterlimit: 4; fill: none; fill-rule: nonzero; opacity: 1;"
                    x1="-11" y1="0" x2="11" y2="0" />
            </g>
            <g transform="matrix(1 0 0 1 8.25 6.51)">
                <polygon
                    style="stroke: #fff; stroke-width: 1.2; stroke-dasharray: none; stroke-linecap: round; stroke-dashoffset: 0; stroke-linejoin: round; stroke-miterlimit: 4; fill: none; fill-rule: nonzero; opacity: 1;"
                    points="3,2.14 -3,4.71 -3,-2.14 3,-4.71 3,2.14 " />
            </g>
            <g transform="matrix(1 0 0 1 2.25 6.51)">
                <polygon
                    style="stroke: #fff; stroke-width: 1.2; stroke-dasharray: none; stroke-linecap: round; stroke-dashoffset: 0; stroke-linejoin: round; stroke-miterlimit: 4; fill: none; fill-rule: nonzero; opacity: 1;"
                    points="-3,2.14 3,4.71 3,-2.14 -3,-4.71 -3,2.14 " />
            </g>
            <g transform="matrix(1 0 0 1 5.25 1.8)">
                <polygon
                    style="stroke: #fff; stroke-width: 1.2; stroke-dasharray: none; stroke-linecap: round; stroke-dashoffset: 0; stroke-linejoin: round; stroke-miterlimit: 4; fill: none; fill-rule: nonzero; opacity: 1;"
                    points="0,-2.57 6,0 0,2.57 -6,0 0,-2.57 " />
            </g>
        </g>
    </g>
</svg>