<svg aria-hidden="true" version="1.1" xmlns="http://www.w3.org/2000/svg" xmlns:xlink="http://www.w3.org/1999/xlink">
    <defs>
        <symbol id="icon-vue" viewBox="0 0 512 512">
            <polygon fill="#283542"
                points="256 144.03 200.51 47.92 121.08 47.92 256 281.61 390.92 47.92 311.49 47.92 256 144.03" />
            <polygon fill="#357759"
                points="409.4 47.92 256 313.61 102.6 47.92 15.74 47.92 256 464.08 496.26 47.92 409.4 47.92" />
        </symbol>

        <symbol id="icon-ang" viewBox="0 0 24 24">
            <path fill="#DD0031"
                d='M9.93 12.645h4.134L11.996 7.74M11.996.009L.686 3.988l1.725 14.76 9.585 5.243 9.588-5.238L23.308 3.99 11.996.01zm7.058 18.297h-2.636l-1.42-3.501H8.995l-1.42 3.501H4.937l7.06-15.648 7.057 15.648z' />
        </symbol>

        <symbol id="icon-nest" viewBox="0 0 18 18">
            <path fill="#E1444E"
                d="M9.97.033c-.122 0-.236.026-.34.06.223.15.345.345.407.568.004.03.013.052.017.083s.01.052.01.08c.018.385-.1.433-.184.66-.127.293-.092.608.06.86a.52.52 0 0 0 .052.096c-.166-1.106.757-1.273.927-1.618.013-.302-.236-.503-.433-.643-.188-.114-.36-.15-.516-.15zm1.39.25c-.018.1-.004.074-.01.127l-.01.114-.03.105c-.01.035-.022.07-.035.105l-.048.1c-.013.018-.022.035-.035.052l-.026.04-.066.087c-.026.026-.048.057-.08.08s-.052.052-.083.074c-.092.07-.197.122-.293.188-.03.022-.06.04-.087.066a.64.64 0 0 0-.083.07c-.03.026-.052.052-.08.083s-.048.057-.066.087l-.06.092-.048.1-.035.1-.03.11c-.004.018-.004.04-.01.057s-.004.035-.01.052l-.004.11c0 .026 0 .052.004.08 0 .035.004.07.013.11s.013.07.022.105l.035.105c.01.022.022.044.03.06l-1.006-.39-.507-.13-.276-.066a8.12 8.12 0 0 0-.796-.118c-.01 0-.013-.004-.022-.004l-.783-.04-.573.022c-.267.018-.534.052-.8.096l-.197.035-.394.087-.197.052-.188.083-.144.066c-.01.004-.018.004-.022.01l-.122.06c-.013.004-.022.01-.03.013l-.136.07c-.03.013-.06.03-.087.044-.013.01-.03.017-.04.022l-.114.066a1.1 1.1 0 0 0-.105.066l-.087.06-.096.07-.074.06c-.01.004-.018.013-.026.018l-.066.057c-.004.01-.013.013-.018.018l-.08.074-.087.083-.074.08c-.01.01-.022.018-.03.026a1.23 1.23 0 0 1-.074.079c-.004.01-.013.013-.018.022l-.1.105-.236.227c-.08.07-.162.136-.245.192l-.262.166c-.087.048-.18.092-.276.13a3.15 3.15 0 0 1-.284.105c-.184.04-.372.114-.534.127-.035 0-.074.01-.11.013l-.11.026-.105.04a1.12 1.12 0 0 0-.105.048c-.03.022-.066.04-.096.06s-.06.048-.087.074-.06.052-.087.08l-.074.087c-.022.035-.048.066-.066.1a.77.77 0 0 0-.061.101l-.048.114-.04.114-.022.105c-.013.052-.013.105-.018.13S0 5.635 0 5.666a.25.25 0 0 0 .004.057c.004.03.01.057.018.083l.03.08c.013.03.03.057.048.083l.057.08.074.07a.64.64 0 0 0 .083.07c.105.092.13.122.267.192.022.013.044.022.07.035.013.013.013.017.018.026.004.035.013.07.022.105a.59.59 0 0 0 .035.105l.035.08c.004.01.01.018.013.022l.052.096.066.092.074.083c.026.026.052.048.083.074l.087.066c.03.022.06.04.096.057a.71.71 0 0 0 .101.048c.026.013.057.022.087.03s.057.018.074.022c-.013.236-.018.46.018.538.04.087.232-.18.424-.485-.026.302-.044.656 0 .76s.31-.232.538-.608c3.1-.717 5.93 1.426 6.227 4.452-.057-.472-.638-.735-.905-.67-.13.324-.354.74-.713.997.03-.29.017-.586-.044-.875a2.83 2.83 0 0 1-.542 1.102c-.415.03-.83-.17-1.05-.472-.018-.013-.022-.04-.035-.057l-.035-.092c-.013-.03-.022-.06-.026-.092s-.004-.06-.004-.096v-.066c.004-.03.013-.06.022-.092l.03-.092c.018-.03.03-.06.052-.092.074-.2.074-.38-.06-.48-.026-.018-.052-.03-.083-.044-.018-.004-.04-.013-.057-.018l-.035-.013-.092-.022a.33.33 0 0 0-.092-.013.71.71 0 0 0-.096-.009c-.022 0-.044.004-.066.004a.34.34 0 0 0-.096.013l-.092.017-.092.03-.087.04-.083.044c-1.02.665-.41 2.22.284 2.672-.262.048-.53.105-.603.162.18.122.376.22.582.302l.708.2c.363.08.73.105 1.102.083a4.16 4.16 0 0 0 3.813-3.551l.026.114.04.245.018.118.01.13.01.144v.07c0 .022.004.048.004.07s-.004.052-.004.08v.06c0 .03-.004.057-.004.087 0 .017 0 .035-.004.057l-.004.096c-.004.013-.004.026-.004.04l-.013.1c0 .013 0 .026-.004.04l-.017.127v.01l-.026.122-.026.13-.035.136-.035.136-.044.14-.096.254-.052.127-.06.122c-.004.013-.01.022-.013.03-.293.586-.713 1.09-1.238 1.482-.035.022-.07.048-.105.074-.01.01-.022.013-.03.022l-.096.066.013.026h.004l.184-.026h.004l.34-.06c.03-.004.066-.013.096-.022l.06-.013.092-.017.08-.022c.437-.105.86-.25 1.268-.42-.695.95-1.627 1.714-2.716 2.217.503-.035 1.006-.118 1.49-.258 1.762-.52 3.245-1.705 4.133-3.302a6.98 6.98 0 0 1-1.176 2.812c.424-.28.813-.603 1.168-.97a6.93 6.93 0 0 0 1.841-3.717c.15.69.192 1.404.127 2.108 3.157-4.404.262-8.97-.95-10.172-.004-.01-.01-.013-.01-.022-.01.052-.013.105-.017.157-.013.1-.026.197-.044.293s-.048.192-.074.29-.066.188-.105.28-.083.18-.13.267a2.98 2.98 0 0 1-.157.249c-.057.083-.118.162-.18.236a3.27 3.27 0 0 1-.206.219c-.044.04-.083.074-.127.11l-.1.087a2.44 2.44 0 0 1-.245.171 3.03 3.03 0 0 1-.258.149c-.092.044-.184.083-.276.122a3.08 3.08 0 0 1-.284.092c-.096.026-.197.048-.293.066s-.2.026-.297.035c-.07.004-.14.01-.2.01-.1 0-.2-.01-.297-.018s-.2-.022-.298-.044a2.21 2.21 0 0 1-.293-.074h-.004c.096-.01.192-.018.29-.035s.197-.04.293-.066.192-.057.284-.092.188-.08.276-.122a3.06 3.06 0 0 0 .262-.144c.083-.057.166-.114.245-.175a2.39 2.39 0 0 0 .223-.197c.074-.066.14-.14.206-.214s.127-.157.184-.236c.01-.013.018-.03.026-.044l.127-.2c.048-.087.092-.175.13-.267s.074-.184.105-.28.052-.188.074-.284.035-.197.044-.293.017-.2.017-.297c0-.07-.004-.14-.01-.2-.01-.1-.022-.197-.035-.293a3.2 3.2 0 0 0-.066-.293c-.03-.092-.06-.188-.096-.28s-.08-.184-.122-.27-.096-.175-.15-.258-.114-.162-.175-.24l-.2-.223a2.73 2.73 0 0 0-.114-.109 8.05 8.05 0 0 0-.608-.429c-.03-.017-.057-.03-.087-.044-.144-.092-.28-.14-.415-.184z"
                fill-rule="evenodd" />
        </symbol>

        <symbol id="icon-html" viewBox="0 0 32 32">
            <path fill="#E44D26" d="M27.377 28.889 16.001 32 4.625 28.889 2 0h28.002z"></path>
            <path fill="#FF6C39" d="M16 2v27.75l9.232-2.742L27.688 2z"></path>
            <path fill="#FFFFFF"
                d="M24.363 6H7.607L8 10l.619 7h10.884l-.355 3.984L16 21.99l-3.143-1.006L12.648 19H8.803l.459 4.987L16 25.99l6.728-2.004.99-10.986H12.252l-.25-3H24z">
            </path>
        </symbol>

        <symbol id="icon-css" viewBox="0 0 32 32">
            <polygon fill="#1F62AE" points="27.377,28.889 16.001,32 4.625,28.889 2,0 30.002,0  " />
            <polygon fill="#347DC6" points="16,2 16,29.75 25.232,27.008 27.688,2  " />
            <polygon fill="#FFFFFF"
                points="24.363,6 7.607,6 8,10 16,10 8.25,12.99 8.619,17 19.502,17 19.158,21 16,21.99 12.861,20.984    12.533,19 8.803,19 9.262,23.987 16,25.99 22.728,23.986 23.719,12.99 16.026,12.99 24,10  " />
        </symbol>

        <symbol id="icon-js" viewBox="0 0 512 512">
            <rect height="100%" fill="#F0DB4F" width="100%" />
            <path fill="#323330"
                d="M276.331,384.759c0,44.767-26.286,65.2-64.586,65.2c-34.601,0-54.623-17.865-64.892-39.529    l35.218-21.255c6.777,12.013,12.938,22.177,27.826,22.177c14.169,0,23.207-5.544,23.207-27.208V237.21h43.227V384.759    L276.331,384.759z" />
            <path fill="#323330"
                d="M378.598,449.959c-40.147,0-66.124-19.099-78.754-44.151l35.219-20.332    c9.241,15.095,21.356,26.286,42.611,26.286c17.866,0,29.364-8.932,29.364-21.355c0-14.787-11.704-20.021-31.52-28.75l-10.781-4.62    c-31.214-13.246-51.853-29.983-51.853-65.2c0-32.447,24.745-57.09,63.248-57.09c27.518,0,47.232,9.549,61.402,34.603    l-33.679,21.562c-7.392-13.246-15.401-18.481-27.825-18.481c-12.63,0-20.639,8.01-20.639,18.481    c0,12.938,8.009,18.176,26.594,26.285l10.78,4.621c36.759,15.71,57.397,31.832,57.397,67.974    C450.164,428.602,419.565,449.959,378.598,449.959L378.598,449.959z" />
        </symbol>

        <symbol id="icon-ts" viewBox="0 0 400 400">
            <path fill="#007acc" d="M0 200V0h400v400H0" />
            <path fill="#fff"
                d="M87.7 200.7V217h52v148h36.9V217h52v-16c0-9 0-16.3-.4-16.5 0-.3-31.7-.4-70.2-.4l-70 .3v16.4l-.3-.1zM321.4 184c10.2 2.4 18 7 25 14.3 3.7 4 9.2 11 9.6 12.8 0 .6-17.3 12.3-27.8 18.8-.4.3-2-1.4-3.6-4-5.2-7.4-10.5-10.6-18.8-11.2-12-.8-20 5.5-20 16 0 3.2.6 5 1.8 7.6 2.7 5.5 7.7 8.8 23.2 15.6 28.6 12.3 41 20.4 48.5 32 8.5 13 10.4 33.4 4.7 48.7-6.4 16.7-22 28-44.3 31.7-7 1.2-23 1-30.5-.3-16-3-31.3-11-40.7-21.3-3.7-4-10.8-14.7-10.4-15.4l3.8-2.4 15-8.7 11.3-6.6 2.6 3.5c3.3 5.2 10.7 12.2 15 14.6 13 6.7 30.4 5.8 39-2 3.7-3.4 5.3-7 5.3-12 0-4.6-.7-6.7-3-10.2-3.2-4.4-9.6-8-27.6-16-20.7-8.8-29.5-14.4-37.7-23-4.7-5.2-9-13.3-11-20-1.5-5.8-2-20-.6-25.7 4.3-20 19.4-34 41-38 7-1.4 23.5-.8 30.4 1l-.2.2z" />
        </symbol>

        <symbol id="icon-sass" viewBox="0 0 512 512">
            <path fill="#CF649A"
                d="M422.009,281.793c-16.096,0.071-30.035,3.952-41.675,9.701c-4.24-8.553-8.624-16.025-9.343-21.629     c-0.86-6.54-1.796-10.419-0.789-18.179c1.007-7.762,5.532-18.756,5.461-19.545c-0.071-0.79-1.006-4.743-10.275-4.815     c-9.269-0.071-17.244,1.796-18.179,4.239c-0.936,2.443-2.73,7.977-3.808,13.725c-1.653,8.407-18.54,38.443-28.097,54.107     c-3.161-6.106-5.819-11.497-6.395-15.808c-0.862-6.54-1.796-10.419-0.79-18.179c1.006-7.762,5.532-18.756,5.46-19.545     c-0.072-0.79-1.006-4.743-10.274-4.815c-9.27-0.071-17.244,1.796-18.18,4.24c-0.934,2.442-1.94,8.191-3.808,13.726     c-1.867,5.53-24.359,55.541-30.251,68.548c-3.019,6.609-5.604,11.927-7.473,15.521c-0.286,0.574-0.502,0.934-0.646,1.222     c0.215-0.359,0.36-0.72,0.36-0.574c-1.581,3.088-2.516,4.813-2.516,4.813v0.071c-1.222,2.299-2.587,4.382-3.233,4.382     c-0.432,0-1.365-6.034,0.216-14.298c3.376-17.389,11.352-44.404,11.28-45.34c-0.072-0.503,1.508-5.173-5.246-7.689     c-6.538-2.371-8.91,1.582-9.484,1.582s-1.006,1.438-1.006,1.438s7.258-30.467-13.94-30.467     c-13.221,0-31.615,14.516-40.668,27.665c-5.677,3.09-17.965,9.772-30.898,16.885c-4.958,2.731-10.06,5.532-14.874,8.192     c-0.359-0.361-0.647-0.72-1.006-1.079c-25.724-27.447-73.22-46.848-71.207-83.711c0.718-13.437,5.389-48.716,91.327-91.542     c70.418-35.065,126.751-25.436,136.453-4.024c13.938,30.539-30.109,87.376-103.256,95.566     c-27.88,3.09-42.537-7.688-46.202-11.711c-3.809-4.239-4.384-4.456-5.821-3.665c-2.372,1.293-0.862,5.03,0,7.257     c2.156,5.676,11.137,15.736,26.443,20.766c13.435,4.383,46.13,6.827,85.649-8.479c44.406-17.102,78.969-64.742,68.837-104.62     C303.809,85.2,236.625,71.906,173.034,94.468c-37.867,13.437-78.824,34.563-108.285,62.082     c-34.993,32.767-40.597,61.292-38.299,73.221c8.192,42.321,66.537,69.914,89.89,90.32c-1.15,0.647-2.228,1.222-3.233,1.797     c-11.712,5.819-56.19,29.1-67.328,53.677c-12.573,27.879,2.083,47.853,11.712,50.585c30.035,8.334,60.789-6.683,77.316-31.33     c16.525-24.645,14.514-56.836,6.898-71.495c-0.073-0.215-0.216-0.357-0.287-0.575c3.017-1.795,6.106-3.592,9.197-5.388     c5.963-3.521,11.784-6.756,16.885-9.556c-2.875,7.761-4.958,17.098-6.036,30.609c-1.293,15.807,5.246,36.286,13.725,44.334     c3.735,3.521,8.262,3.594,11.065,3.594c9.916,0,14.37-8.193,19.328-17.965c6.108-11.93,11.497-25.798,11.497-25.798     s-6.754,37.511,11.712,37.511c6.754,0,13.51-8.695,16.526-13.15v0.071c0,0,0.145-0.286,0.504-0.86     c0.718-1.079,1.077-1.726,1.077-1.726v-0.217c2.73-4.67,8.695-15.377,17.675-33.052c11.642-22.851,22.778-51.378,22.778-51.378     s1.006,6.972,4.457,18.54c2.011,6.826,6.25,14.299,9.627,21.557c-2.729,3.736-4.383,5.892-4.383,5.892s0,0.071,0.07,0.143     c-2.155,2.876-4.597,5.966-7.112,8.984c-9.198,10.921-20.12,23.425-21.556,27.017c-1.726,4.24-1.294,7.399,2.012,9.844     c2.442,1.869,6.754,2.155,11.28,1.797c8.264-0.577,14.084-2.587,16.886-3.883c4.454-1.578,9.629-4.095,14.515-7.615     c8.982-6.609,14.444-16.094,13.939-28.597c-0.287-6.898-2.516-13.797-5.246-20.262c0.791-1.151,1.654-2.374,2.444-3.593     c14.229-20.769,25.222-43.544,25.222-43.544s1.006,6.968,4.454,18.537c1.725,5.821,5.102,12.216,8.191,18.466     c-13.365,10.851-21.627,23.427-24.502,31.688c-5.318,15.306-1.15,22.202,6.682,23.786c3.521,0.718,8.551-0.936,12.288-2.517     c4.67-1.581,10.275-4.096,15.52-7.976c8.982-6.609,17.677-15.88,17.103-28.454c-0.217-5.677-1.797-11.353-3.881-16.814     c11.28-4.741,25.941-7.33,44.622-5.173c40.023,4.67,47.854,29.675,46.345,40.093c-1.507,10.492-9.914,16.241-12.717,17.965     c-2.804,1.725-3.665,2.372-3.448,3.665c0.358,1.868,1.651,1.797,4.022,1.364c3.307-0.574,20.982-8.479,21.771-27.808     C487.108,308.45,463.613,281.578,422.009,281.793L422.009,281.793z M113.538,385.766c-13.22,14.443-31.759,19.904-39.734,15.305     c-8.551-4.956-5.174-26.226,11.137-41.604c9.916-9.34,22.706-17.962,31.185-23.279c1.94-1.149,4.743-2.874,8.192-4.958     c0.575-0.357,0.862-0.502,0.862-0.502c0.646-0.433,1.365-0.791,2.084-1.223C133.226,351.349,127.478,370.605,113.538,385.766     L113.538,385.766z M210.111,320.091c-4.599,11.28-14.3,40.023-20.19,38.514c-5.03-1.294-8.121-23.209-1.006-44.764     c3.592-10.851,11.208-23.784,15.736-28.813c7.256-8.121,15.232-10.708,17.101-7.474     C224.266,281.793,212.984,313.05,210.111,320.091L210.111,320.091z M289.868,358.176c-1.939,1.005-3.736,1.651-4.598,1.148     c-0.646-0.359,0.791-1.725,0.791-1.725s9.986-10.706,13.939-15.594c2.299-2.873,4.957-6.251,7.832-9.986     c0,0.357,0.07,0.719,0.07,1.148C307.833,346.031,295.474,354.727,289.868,358.176z M351.377,344.163     c-1.437-1.006-1.223-4.383,3.592-14.875c1.869-4.096,6.181-10.993,13.652-17.604c0.863,2.73,1.365,5.316,1.365,7.759     C369.913,335.611,358.346,341.647,351.377,344.163L351.377,344.163z" />
        </symbol>

        <symbol id="icon-rest" viewBox='0 0 24 24'>
            <g transform="matrix(0.43 0 0 0.43 12 12)">
                <path fill="#fff" transform="translate(-25, -25)"
                    d="M 21.8125 2 C 20.867188 2 20.03125 2.664063 19.84375 3.59375 L 19.375 5.9375 C 16.277344 6.851563 13.492188 8.417969 11.21875 10.59375 L 9.03125 9.84375 C 8.140625 9.542969 7.164063 9.945313 6.6875 10.75 L 3.5 16.25 C 3.027344 17.070313 3.191406 18.125 3.90625 18.75 L 5.65625 20.3125 C 5.285156 21.820313 5 23.371094 5 25 C 5 26.628906 5.289063 28.179688 5.65625 29.6875 L 3.90625 31.25 C 3.195313 31.875 3.027344 32.929688 3.5 33.75 L 6.65625 39.25 C 7.128906 40.070313 8.132813 40.460938 9.03125 40.15625 L 11.21875 39.40625 C 13.492188 41.582031 16.28125 43.148438 19.375 44.0625 L 19.84375 46.40625 C 20.03125 47.332031 20.867188 48 21.8125 48 L 28.1875 48 C 29.132813 48 29.96875 47.335938 30.15625 46.40625 L 30.625 44.0625 C 33.722656 43.148438 36.507813 41.582031 38.78125 39.40625 L 40.96875 40.15625 C 41.859375 40.457031 42.835938 40.054688 43.3125 39.25 L 46.5 33.75 C 46.972656 32.929688 46.804688 31.875 46.09375 31.25 L 44.34375 29.6875 C 44.710938 28.179688 45 26.628906 45 25 C 45 23.371094 44.710938 21.820313 44.34375 20.3125 L 46.09375 18.75 C 46.804688 18.125 46.972656 17.070313 46.5 16.25 L 43.34375 10.75 C 42.871094 9.929688 41.867188 9.539063 40.96875 9.84375 L 38.78125 10.59375 C 36.507813 8.417969 33.71875 6.851563 30.625 5.9375 L 30.15625 3.59375 C 29.96875 2.667969 29.132813 2 28.1875 2 Z M 21.8125 4 L 28.1875 4 L 28.875 7.4375 L 29.46875 7.59375 C 32.703125 8.421875 35.582031 10.09375 37.84375 12.40625 L 38.28125 12.875 L 38.90625 12.65625 L 41.59375 11.75 L 44.78125 17.25 L 42.625 19.15625 L 42.15625 19.5625 L 42.3125 20.15625 C 42.742188 21.703125 43 23.328125 43 25 C 43 26.671875 42.742188 28.296875 42.3125 29.84375 L 42.15625 30.4375 L 42.625 30.84375 L 44.78125 32.75 L 41.59375 38.25 L 38.875 37.34375 L 38.28125 37.125 L 37.84375 37.59375 C 35.582031 39.902344 32.703125 41.578125 29.46875 42.40625 L 28.875 42.5625 L 28.1875 46 L 21.8125 46 L 21.125 42.5625 L 20.53125 42.40625 C 17.296875 41.578125 14.417969 39.90625 12.15625 37.59375 L 11.71875 37.125 L 11.09375 37.34375 L 8.40625 38.25 L 5.21875 32.75 L 7.375 30.84375 L 7.84375 30.4375 L 7.6875 29.84375 C 7.257813 28.296875 7 26.671875 7 25 C 7 23.328125 7.253906 21.703125 7.6875 20.15625 L 7.84375 19.5625 L 7.375 19.15625 L 5.21875 17.25 L 8.40625 11.75 L 11.125 12.65625 L 11.71875 12.875 L 12.15625 12.40625 C 14.417969 10.097656 17.296875 8.421875 20.53125 7.59375 L 21.125 7.4375 Z M 34.90625 17.96875 C 34.863281 17.976563 34.820313 17.988281 34.78125 18 L 34 18 C 33.96875 18 33.9375 18 33.90625 18 C 33.355469 18.027344 32.925781 18.496094 32.953125 19.046875 C 32.980469 19.597656 33.449219 20.027344 34 20 L 34 30 C 33.96875 30 33.9375 30 33.90625 30 C 33.355469 30.027344 32.925781 30.496094 32.953125 31.046875 C 32.980469 31.597656 33.449219 32.027344 34 32 L 36 32 C 36.359375 32.003906 36.695313 31.816406 36.878906 31.503906 C 37.058594 31.191406 37.058594 30.808594 36.878906 30.496094 C 36.695313 30.183594 36.359375 29.996094 36 30 L 36 20 C 36.359375 20.003906 36.695313 19.816406 36.878906 19.503906 C 37.058594 19.191406 37.058594 18.808594 36.878906 18.496094 C 36.695313 18.183594 36.359375 17.996094 36 18 L 35.1875 18 C 35.097656 17.976563 35 17.964844 34.90625 17.96875 Z M 16.375 18 C 15.972656 18.046875 15.640625 18.332031 15.53125 18.71875 L 12.03125 30.09375 C 12.003906 30.195313 11.992188 30.300781 12 30.40625 L 12 31 C 11.996094 31.359375 12.183594 31.695313 12.496094 31.878906 C 12.808594 32.058594 13.191406 32.058594 13.503906 31.878906 C 13.816406 31.695313 14.003906 31.359375 14 31 L 14 30.59375 L 14.5 29 L 18.5 29 L 19 30.59375 L 19 31 C 18.996094 31.359375 19.183594 31.695313 19.496094 31.878906 C 19.808594 32.058594 20.191406 32.058594 20.503906 31.878906 C 20.816406 31.695313 21.003906 31.359375 21 31 L 21 30.40625 C 21.007813 30.300781 20.996094 30.195313 20.96875 30.09375 L 17.46875 18.71875 C 17.332031 18.242188 16.867188 17.933594 16.375 18 Z M 23.8125 18 C 23.335938 18.089844 22.992188 18.511719 23 19 L 23 25.8125 C 22.972656 25.945313 22.972656 26.085938 23 26.21875 L 23 31 C 22.996094 31.359375 23.183594 31.695313 23.496094 31.878906 C 23.808594 32.058594 24.191406 32.058594 24.503906 31.878906 C 24.816406 31.695313 25.003906 31.359375 25 31 L 25 27 L 28 27 C 29.644531 27 31 25.644531 31 24 L 31 21 C 31 19.355469 29.644531 18 28 18 L 24 18 C 23.96875 18 23.9375 18 23.90625 18 C 23.875 18 23.84375 18 23.8125 18 Z M 25 20 L 28 20 C 28.566406 20 29 20.433594 29 21 L 29 24 C 29 24.566406 28.566406 25 28 25 L 25 25 Z M 16.5 22.4375 L 17.90625 27 L 15.09375 27 Z"
                    stroke-linecap="round" />
            </g>
        </symbol>

        <symbol id="icon-http" viewBox='0 0 24 24'>
            <g transform="matrix(0.83 0 0 0.83 12 12)">
                <g transform="matrix(1 0 0 1 0.6 7.34)">
                    <path fill="#fff" transform=" translate(-12.61, -19.34)"
                        d="M 13.67 15.93 L 11.54 15.93 C 11.125786437626903 15.93 10.79 16.265786437626904 10.79 16.68 C 10.79 17.094213562373096 11.125786437626903 17.43 11.54 17.43 L 11.6 17.43 C 11.738071187457699 17.43 11.85 17.541928812542302 11.85 17.68 L 11.85 22 C 11.85 22.414213562373096 12.185786437626904 22.75 12.6 22.75 C 13.014213562373095 22.75 13.35 22.414213562373096 13.35 22 L 13.35 17.68 C 13.35 17.541928812542302 13.4619288125423 17.43 13.6 17.43 L 13.67 17.43 C 14.084213562373096 17.43 14.42 17.094213562373096 14.42 16.68 C 14.42 16.265786437626904 14.084213562373096 15.93 13.67 15.93 Z"
                        stroke-linecap="round" />
                </g>
                <g transform="matrix(1 0 0 1 5.39 7.34)">
                    <path fill="#fff" transform=" translate(-17.39, -19.34)"
                        d="M 18.46 15.93 L 16.33 15.93 C 15.915786437626902 15.93 15.579999999999998 16.265786437626904 15.579999999999998 16.68 C 15.579999999999998 17.094213562373096 15.915786437626902 17.43 16.33 17.43 L 16.4 17.43 C 16.538071187457696 17.43 16.65 17.541928812542302 16.65 17.68 L 16.65 22 C 16.65 22.414213562373096 16.985786437626903 22.75 17.4 22.75 C 17.814213562373094 22.75 18.15 22.414213562373096 18.15 22 L 18.15 17.68 C 18.15 17.541928812542302 18.2619288125423 17.43 18.4 17.43 L 18.459999999999997 17.43 C 18.874213562373093 17.43 19.209999999999997 17.094213562373096 19.209999999999997 16.68 C 19.209999999999997 16.265786437626904 18.874213562373093 15.93 18.459999999999997 15.93 Z"
                        stroke-linecap="round" />
                </g>
                <g transform="matrix(1 0 0 1 -4.44 7.34)">
                    <path fill="#fff" transform=" translate(-7.56, -19.34)"
                        d="M 8.88 15.93 C 8.680266847360135 15.927282163062404 8.487918223697251 16.005426740989968 8.34667248234361 16.146672482343607 C 8.205426740989969 16.28791822369725 8.127282163062405 16.480266847360134 8.13 16.68 L 8.13 18.87 C 8.13 19.0080711874577 8.0180711874577 19.12 7.880000000000001 19.12 L 7.25 19.12 C 7.111928812542302 19.12 7 19.0080711874577 7 18.87 L 7 16.68 C 7 16.265786437626904 6.664213562373095 15.93 6.25 15.93 C 5.835786437626905 15.93 5.5 16.265786437626904 5.5 16.68 L 5.5 22 C 5.5 22.414213562373096 5.835786437626905 22.75 6.25 22.75 C 6.664213562373095 22.75 7 22.414213562373096 7 22 L 7 20.87 C 7 20.731928812542304 7.111928812542302 20.62 7.25 20.62 L 7.88 20.62 C 8.018071187457698 20.62 8.129999999999999 20.731928812542304 8.129999999999999 20.87 L 8.129999999999999 22 C 8.129999999999999 22.414213562373096 8.465786437626903 22.75 8.879999999999999 22.75 C 9.294213562373095 22.75 9.629999999999999 22.414213562373096 9.629999999999999 22 L 9.629999999999999 16.68 C 9.629999999999999 16.265786437626904 9.294213562373095 15.93 8.88 15.93 Z"
                        stroke-linecap="round" />
                </g>
                <g transform="matrix(1 0 0 1 10.18 7.34)">
                    <path fill="#fff" transform=" translate(-22.18, -19.34)"
                        d="M 21.65 15.93 L 21.119999999999997 15.93 C 20.7057864376269 15.93 20.369999999999997 16.265786437626904 20.369999999999997 16.68 L 20.369999999999997 22 C 20.369999999999997 22.414213562373096 20.7057864376269 22.75 21.119999999999997 22.75 C 21.534213562373093 22.75 21.869999999999997 22.414213562373096 21.869999999999997 22 L 21.869999999999997 20.82 C 21.872427762145215 20.69762463757153 21.95988046687132 20.593514274802363 22.08 20.57 C 23.26771928489228 20.347528607900376 24.090708920598566 19.257291156744913 23.979203663956408 18.054071643210936 C 23.86769840731425 16.85085212967696 22.858375125527854 15.930419539409828 21.65 15.93 Z M 22.31 18.79 C 22.245006097551546 18.869639600912606 22.13788808666137 18.901378270805992 22.04 18.869999999999997 C 21.93918297737283 18.832816143580708 21.871627215426756 18.737443303186247 21.869999999999997 18.63 L 21.869999999999997 17.919999999999998 C 21.871627215426756 17.81255669681375 21.93918297737283 17.71718385641929 22.04 17.68 C 22.137714370154388 17.642014900821884 22.248750954214724 17.67491462943235 22.31 17.759999999999998 C 22.54781713688677 18.050915590385564 22.54781713688677 18.46908440961443 22.31 18.759999999999998 Z"
                        stroke-linecap="round" />
                </g>
                <g transform="matrix(1 0 0 1 0 -0.5)">
                    <path fill="#fff" transform=" translate(-12, -11.5)"
                        d="M 24 4.25 C 24 2.5931457505076194 22.65685424949238 1.25 21 1.25 L 3 1.25 C 1.3431457505076196 1.25 0 2.5931457505076194 0 4.25 L 0 18.75 C 0 20.40685424949238 1.3431457505076196 21.75 3 21.75 L 3 21.75 C 3.5522847498307932 21.75 4 21.302284749830793 4 20.75 L 4 20.75 C 4 20.197715250169207 3.5522847498307932 19.75 3 19.75 L 3 19.75 C 2.4477152501692068 19.75 2 19.302284749830793 2 18.75 L 2 6.5 C 2 6.361928812542302 2.1119288125423017 6.25 2.25 6.25 L 21.75 6.25 C 21.888071187457697 6.25 22 6.361928812542302 22 6.5 L 22 12.75 C 22 13.302284749830793 22.447715250169207 13.75 23 13.75 L 23 13.75 C 23.552284749830793 13.75 24 13.302284749830793 24 12.75 Z M 4.350000000000001 4.25 C 4.167660723079583 4.544216930468866 3.8461375652574903 4.723217312357363 3.5000000000000013 4.723217312357363 C 3.1538624347425124 4.723217312357363 2.83233927692042 4.544216930468865 2.6500000000000012 4.25 C 2.556613342929237 4.099553443439143 2.504849611011119 3.9270076703787504 2.5000000000000013 3.75 C 2.5038925560585175 3.60888263305352 2.534428758732761 3.469773265315297 2.5900000000000007 3.34 C 2.747386505456774 3.006914992485179 3.075162001955035 2.7873389643939457 3.4430779869838806 2.7685250787958795 C 3.810993972012726 2.7497111931978133 4.15945779083962 2.9347068017553744 4.350000000000001 3.2499999999999996 C 4.549561498385582 3.5534647396049097 4.549561498385582 3.9465352603950903 4.350000000000001 4.25 Z M 7.850000000000001 4.25 C 7.667660723079583 4.544216930468866 7.34613756525749 4.723217312357363 7.000000000000001 4.723217312357363 C 6.653862434742512 4.723217312357363 6.33233927692042 4.544216930468865 6.150000000000001 4.25 C 5.95043850161442 3.9465352603950903 5.95043850161442 3.5534647396049097 6.150000000000001 3.25 C 6.33233927692042 2.9557830695311345 6.653862434742512 2.776782687642637 7.000000000000002 2.776782687642637 C 7.34613756525749 2.776782687642637 7.667660723079583 2.9557830695311345 7.850000000000001 3.25 C 8.049561498385582 3.5534647396049097 8.049561498385582 3.9465352603950903 7.850000000000001 4.25 Z M 11.350000000000001 4.25 C 11.167660723079583 4.544216930468865 10.84613756525749 4.723217312357362 10.500000000000002 4.723217312357362 C 10.153862434742514 4.723217312357362 9.83233927692042 4.544216930468865 9.650000000000002 4.25 C 9.450438501614421 3.9465352603950903 9.450438501614421 3.5534647396049097 9.650000000000002 3.25 C 9.83233927692042 2.955783069531135 10.153862434742514 2.776782687642638 10.500000000000002 2.776782687642638 C 10.84613756525749 2.776782687642638 11.167660723079583 2.955783069531135 11.350000000000001 3.25 C 11.549561498385582 3.5534647396049097 11.549561498385582 3.9465352603950903 11.350000000000001 4.25 Z"
                        stroke-linecap="round" />
                </g>
            </g>
        </symbol>

        <symbol id="icon-webpack" fill="none" viewBox="36 0 48 48">
            <path fill="#fff"
                d="M50.245 34.84h2.78l2.834-9.444h-2.7l-1.678 6.7-1.8-6.7h-2.346l-1.806 6.7-1.662-6.7h-2.7l2.818 9.444h2.78l1.753-6.05zm5.76-4.695c0 2.834 1.93 4.93 4.968 4.93 2.35 0 3.613-1.41 3.974-2.076l-1.645-1.247c-.27.398-1.01 1.156-2.295 1.156-1.392 0-2.403-.903-2.457-2.167h6.65c.017-.182.017-.36.017-.543 0-3.087-1.662-5.04-4.587-5.04-2.693 0-4.624 2.13-4.624 4.985zm2.62-1.03c.108-1.082.866-1.914 2.042-1.914 1.14 0 1.968.758 2.022 1.914zm7.533 5.726h2.35v-.974c.253.307 1.193 1.2 2.8 1.2 2.7 0 4.624-2.04 4.624-4.948 0-2.925-1.77-4.964-4.48-4.964-1.624 0-2.565.903-2.8 1.227v-4.607h-2.49V34.84zm2.42-4.695c0-1.77 1.048-2.78 2.42-2.78 1.446 0 2.42 1.14 2.42 2.78 0 1.678-1.01 2.727-2.42 2.727-1.517 0-2.42-1.23-2.42-2.727zm8.325 8.072h2.49v-4.354c.236.307 1.173 1.2 2.8 1.2 2.7 0 4.48-2.04 4.48-4.964 0-2.888-1.914-4.948-4.624-4.948-1.608 0-2.548.903-2.8 1.227v-.994h-2.35v12.824zm2.42-8.126c0-1.5.903-2.727 2.42-2.727 1.41 0 2.42 1.048 2.42 2.727 0 1.645-.974 2.78-2.42 2.78-1.372 0-2.42-1.01-2.42-2.78zm7.802 1.823c0 1.985 1.624 3.16 3.54 3.16 1.085 0 1.806-.324 2.295-.85l.162.613h2.204v-5.98c0-2.113-.903-3.7-3.937-3.7a7.05 7.05 0 0 0-3.721 1.119l.94 1.7c.704-.36 1.57-.667 2.51-.667 1.102 0 1.715.56 1.715 1.392v.613c-.344-.236-1.085-.522-2.042-.522-2.204-.003-3.667 1.26-3.667 3.12zm2.49-.074c0-.775.667-1.318 1.624-1.318s1.645.49 1.645 1.318c0 .795-.688 1.3-1.624 1.3s-1.645-.522-1.645-1.3zm11.76 1.03c-1.57 0-2.7-1.14-2.7-2.743 0-1.517.994-2.764 2.602-2.764 1.065 0 1.8.522 2.204.903l.704-2.096c-.613-.468-1.59-1.01-2.98-1.01-2.872 0-5.022 2.113-5.022 4.985s2.096 4.93 5.04 4.93c1.372 0 2.403-.576 2.942-1.01l-.667-2.04c-.418.34-1.176.846-2.133.846zm3.738 1.968h2.49v-4.877l3.16 4.877h2.925l-3.576-5.167 3.323-4.28h-2.8l-3.033 3.974v-7.583h-2.49z" />
            <path fill="#8ed6fb"
                d="M34.84 38.838l-13.23 7.485v-5.828l8.244-4.536zm.906-.82v-15.65l-4.84 2.797v10.06zm-28.53.82l13.23 7.485v-5.828L12.2 35.958zm-.906-.82v-15.65l4.84 2.797v10.06zm.568-16.665l13.57-7.676v5.633l-8.764 4.822zm28.3 0l-13.57-7.676v5.633l8.764 4.818z" />
            <path fill="#1c78c0"
                d="M20.45 39.423l-8.135-4.475v-8.86l8.135 4.696zm1.162 0l8.135-4.47v-8.864l-8.135 4.696zm-.58-8.976zm-8.166-5.382l8.166-4.488 8.166 4.488-8.166 4.714z" />
        </symbol>

        <symbol id="icon-gulp" viewBox="0 0 24 24">
            <path fill="#D44445"
                d="M15.156 19.432l.636-1.084s-1.444.591-3.86.591c-2.418 0-3.84-.568-3.84-.568l.711 1.183.252 3.729c0 .403 1.314.718 2.936.718 1.623 0 2.938-.314 2.938-.718l.229-3.835v-.016zm.615-7.046c-.769.046-1.153.903-1.539 1.805-.143.33-.63 1.737-.948 1.563-.318-.173.413-1.329.619-2.017-.237.174-1.105.849-1.329.215-.358.314-1.129.48-1.042-.329-.191.345-.621.823-1.139.614-.673-.255.395-2.411.66-2.307.266.121-.053.6-.136.794-.186.419-.398.958-.255 1.063.24.194.904-.703.919-.719.124-.165.479-1.229.763-1.107.285.134-.711 1.541-.34 1.826.076.06.383-.03.569-.239.12-.12.078-.42.479-1.378.404-.959.764-2.156 1.039-2.066s.049.703-.051.943c-.464 1.078-1.268 2.844-.89 2.71.374-.135.569-.135.943-.569.374-.434.345-1.152.599-1.137.24.014.21.254.15.418.24-.27 1.152-.868 1.363-.284.254.688-1.304 1.692-.914 1.632.375-.045.988-.434 1.258-.793l.719-6.5s-.734.6-5.361.6-5.284-.584-5.284-.584l.613 5.93c.33-.928 1.108-2.814 2.322-2.74.554.03 1.303 1.109.658 1.139-.27.015-.3-.539-.614-.614-.239-.046-.554.135-.763.345-.404.404-1.304 2.006-1.184 2.801.15 1.018 1.407-.346 1.617-.75.149-.283.254-1.138.568-1.048.33.09-.029.974-.27 1.737-.27.869-.404 1.781-.732 1.676-.33-.104.209-1.227.178-1.422-.313.299-.883 1.02-1.631.659l.374 3.699s1.019.793 4.073.793 4.118-.793 4.118-.793l.479-4.283c-.389.39-1.617 1.063-1.692.3-.059-.614 1.333-1.498.974-1.514l.06-.069zM17.346.669l-2.659 2.8-.486 1.901c1.881.12 3.189.386 3.189.694 0 .419-2.414.757-5.391.757s-5.39-.343-5.39-.763c0-.419 2.414-.764 5.391-.764.423 0 .844 0 1.264.016l.561-2.276L16.65.039c.068-.09.28-.015.474.15.194.149.299.344.239.434v.03l-.017.016zm-3.834 5.795s-.523 0-.61-.08c-.022-.025-.036-.058-.036-.09 0-.058.039-.091.09-.11l.044.075c-.021.006-.029.015-.033.023 0 .041.314.069.555.066.239-.003.531-.023.533-.064 0-.012-.023-.023-.061-.033l.045-.072c.063.02.117.058.117.121 0 .11-.141.128-.23.141-.107.015-.412.023-.412.023h-.002z" />
        </symbol>

        <symbol id="icon-postman" viewBox="0 0 24 24">
            <path fill="#EF6933"
                d="M13.527.099C6.955-.744.942 3.9.099 10.473c-.843 6.572 3.8 12.584 10.373 13.428 6.573.843 12.587-3.801 13.428-10.374C24.744 6.955 20.101.943 13.527.099zm2.471 7.485a.855.855 0 0 0-.593.25l-4.453 4.453-.307-.307-.643-.643c4.389-4.376 5.18-4.418 5.996-3.753zm-4.863 4.861l4.44-4.44a.62.62 0 1 1 .847.903l-4.699 4.125-.588-.588zm.33.694l-1.1.238a.06.06 0 0 1-.067-.032.06.06 0 0 1 .01-.073l.645-.645.512.512zm-2.803-.459l1.172-1.172.879.878-1.979.426a.074.074 0 0 1-.085-.039.072.072 0 0 1 .013-.093zm-3.646 6.058a.076.076 0 0 1-.069-.083.077.077 0 0 1 .022-.046h.002l.946-.946 1.222 1.222-2.123-.147zm2.425-1.256a.228.228 0 0 0-.117.256l.203.865a.125.125 0 0 1-.211.117h-.003l-.934-.934-.294-.295 3.762-3.758 1.82-.393.874.874c-1.255 1.102-2.971 2.201-5.1 3.268zm5.279-3.428h-.002l-.839-.839 4.699-4.125a.952.952 0 0 0 .119-.127c-.148 1.345-2.029 3.245-3.977 5.091zm3.657-6.46l-.003-.002a1.822 1.822 0 0 1 2.459-2.684l-1.61 1.613a.119.119 0 0 0 0 .169l1.247 1.247a1.817 1.817 0 0 1-2.093-.343zm2.578 0a1.714 1.714 0 0 1-.271.218h-.001l-1.207-1.207 1.533-1.533c.661.72.637 1.832-.054 2.522zM18.855 6.05a.143.143 0 0 0-.053.157.416.416 0 0 1-.053.45.14.14 0 0 0 .023.197.141.141 0 0 0 .084.03.14.14 0 0 0 .106-.05.691.691 0 0 0 .087-.751.138.138 0 0 0-.194-.033z" />
        </symbol>

        <symbol id="icon-figma" viewBox="0 0 3000 3000">
            <path fill="#0ACF83"
                d="M1083.333374,2750c230,0,416.666626-186.666748,416.666626-416.666748v-416.666626h-416.666626  c-230.000061,0-416.666687,186.666626-416.666687,416.666626S853.333313,2750,1083.333374,2750z" />
            <path fill="#A259FF"
                d="M666.666687,1500c0-230,186.666626-416.666748,416.666687-416.666748H1500v833.333374  h-416.666626C853.333313,1916.666626,666.666687,1730,666.666687,1500z" />
            <path fill="#F24E1E"
                d="M666.666687,666.666626C666.666687,436.666656,853.333313,250,1083.333374,250H1500  v833.333252h-416.666626C853.333313,1083.333252,666.666687,896.666626,666.666687,666.666626z" />
            <path fill="#FF7262"
                d="M1500,250h416.666626c230.000122,0,416.666626,186.666656,416.666626,416.666626  s-186.666504,416.666626-416.666626,416.666626H1500V250z" />
            <path fill="#1ABCFE"
                d="M2333.333252,1500c0,230-186.666504,416.666626-416.666626,416.666626S1500,1730,1500,1500  s186.666626-416.666748,416.666626-416.666748S2333.333252,1270,2333.333252,1500z" />
        </symbol>

        <symbol id="icon-ps" viewBox="0 0 512 512">
            <rect height="510.578" fill="#4FC7EC" width="510.576" x="1.207" y="0.711" rx="104.187" />
            <rect height="465.646" fill="#242238" width="465.646" x="23.669" y="23.179" rx="84" />
            <path fill="#4FC7EC"
                d="M125.389,124.051c0-1.76,0.302-2.459,1.811-2.459         c11.48-0.354,34.144-0.703,57.105-0.703c59.215,0,81.802,34.454,82.104,75.205c0,55.848-41.623,77.024-86.033,77.024         c-8.459,0-16.616,0-18.734,0v79.795c0,2.108-0.601,2.813-2.114,2.813h-32.026c-1.509,0-2.114-0.704-2.114-2.459V124.051z          M161.643,239.047c2.42,0.35,6.95,0.699,19.642,0.699c23.864,0,46.826-6.801,46.826-41.929         c0-28.102-15.406-42.536-43.805-42.536c-11.783,0-20.243,0.35-22.663,0.704V239.047z" />
            <path fill="#4FC7EC"
                d="M341.819,212.791c-14.549,0-18.405,9.099-18.405,15.773         c0,8.433,3.856,12.997,26.123,23.537c30.577,14.753,43.64,27.752,43.64,53.04c0,35.129-22.859,55.115-55.517,55.115         c-15.733,0-35.585-1.5-48.054-10.632c-1.188-0.704-1.782-1.756-1.782-3.516v-32.316c0-1.756,1.189-2.459,2.08-1.756         c15.436,11.592,32.652,14.886,48.088,14.886c13.658,0,18.406-9.103,18.406-16.829c0-9.133-3.299-14.404-24.675-24.59         c-30.577-14.754-43.306-27.432-43.306-53.074c0-28.455,21.337-51.958,56.368-51.958c18.107,0,30.871,0.485,39.186,6.102         c1.482,1.406,1.781,2.459,1.781,4.568v28.804c0,2.105-1.188,3.163-2.672,2.105         C372.393,215.028,357.255,212.791,341.819,212.791z" />
        </symbol>

        <symbol id="icon-vs-code" viewBox="0 0 32 32">
            <path fill="#2672a9"
                d="M28,25.6l-5.9,2.4l-9.7-9.6l-6.1,4.8L4,21.9V10.1l2.3-1.2l6.1,4.8L22.1,4L28,6.4V25.6z M15.7,16l6.3,5l0,0V11L15.7,16  L15.7,16z M6.3,19.7L6.3,19.7L10,16l-3.6-3.7l0,0L6.3,19.7L6.3,19.7z" />
        </symbol>

        <symbol id="icon-chat-gpt" viewBox="0 0 512 512">
            <rect fill="#10A37F" width="512" height="512" rx="104.187" ry="105.042" />
            <path fill="#fff" fill-rule="nonzero"
                d="M378.68 230.011a71.432 71.432 0 003.654-22.541 71.383 71.383 0 00-9.783-36.064c-12.871-22.404-36.747-36.236-62.587-36.236a72.31 72.31 0 00-15.145 1.604 71.362 71.362 0 00-53.37-23.991h-.453l-.17.001c-31.297 0-59.052 20.195-68.673 49.967a71.372 71.372 0 00-47.709 34.618 72.224 72.224 0 00-9.755 36.226 72.204 72.204 0 0018.628 48.395 71.395 71.395 0 00-3.655 22.541 71.388 71.388 0 009.783 36.064 72.187 72.187 0 0077.728 34.631 71.375 71.375 0 0053.374 23.992H271l.184-.001c31.314 0 59.06-20.196 68.681-49.995a71.384 71.384 0 0047.71-34.619 72.107 72.107 0 009.736-36.194 72.201 72.201 0 00-18.628-48.394l-.003-.004zM271.018 380.492h-.074a53.576 53.576 0 01-34.287-12.423 44.928 44.928 0 001.694-.96l57.032-32.943a9.278 9.278 0 004.688-8.06v-80.459l24.106 13.919a.859.859 0 01.469.661v66.586c-.033 29.604-24.022 53.619-53.628 53.679zm-115.329-49.257a53.563 53.563 0 01-7.196-26.798c0-3.069.268-6.146.79-9.17.424.254 1.164.706 1.695 1.011l57.032 32.943a9.289 9.289 0 009.37-.002l69.63-40.205v27.839l.001.048a.864.864 0 01-.345.691l-57.654 33.288a53.791 53.791 0 01-26.817 7.17 53.746 53.746 0 01-46.506-26.818v.003zm-15.004-124.506a53.5 53.5 0 0127.941-23.534c0 .491-.028 1.361-.028 1.965v65.887l-.001.054a9.27 9.27 0 004.681 8.053l69.63 40.199-24.105 13.919a.864.864 0 01-.813.074l-57.66-33.316a53.746 53.746 0 01-26.805-46.5 53.787 53.787 0 017.163-26.798l-.003-.003zm198.055 46.089l-69.63-40.204 24.106-13.914a.863.863 0 01.813-.074l57.659 33.288a53.71 53.71 0 0126.835 46.491c0 22.489-14.033 42.612-35.133 50.379v-67.857c.003-.025.003-.051.003-.076a9.265 9.265 0 00-4.653-8.033zm23.993-36.111a81.919 81.919 0 00-1.694-1.01l-57.032-32.944a9.31 9.31 0 00-4.684-1.266 9.31 9.31 0 00-4.684 1.266l-69.631 40.205v-27.839l-.001-.048c0-.272.129-.528.346-.691l57.654-33.26a53.696 53.696 0 0126.816-7.177c29.644 0 53.684 24.04 53.684 53.684a53.91 53.91 0 01-.774 9.077v.003zm-150.831 49.618l-24.111-13.919a.859.859 0 01-.469-.661v-66.587c.013-29.628 24.053-53.648 53.684-53.648a53.719 53.719 0 0134.349 12.426c-.434.237-1.191.655-1.694.96l-57.032 32.943a9.272 9.272 0 00-4.687 8.057v.053l-.04 80.376zm13.095-28.233l31.012-17.912 31.012 17.9v35.812l-31.012 17.901-31.012-17.901v-35.8z" />
        </symbol>

        <symbol id="icon-rxjs" viewBox="12.100000000000001 8.4 262.79999999999995 272.2" width="2376" height="2500">
            <linearGradient id="a" gradientUnits="userSpaceOnUse" x1="53.496" x2="177.932" y1="247.701" y2="115.323">
                <stop offset="0" stop-color="#e01d84" />
                <stop offset=".401" stop-color="#df1d85" />
                <stop offset=".77" stop-color="#932c87" />
                <stop offset="1" stop-color="#5d2f88" />
            </linearGradient>
            <radialGradient id="b" cx="190.456" cy="80.2" gradientTransform="matrix(1 .00239 -.002 .8362 .16 12.685)"
                gradientUnits="userSpaceOnUse" r="121.582">
                <stop offset="0" stop-color="#e01d84" />
                <stop offset=".139" stop-color="#de1e85" />
                <stop offset=".285" stop-color="#d62085" />
                <stop offset=".434" stop-color="#c92386" />
                <stop offset=".586" stop-color="#b72786" />
                <stop offset=".739" stop-color="#9d2b87" />
                <stop offset=".891" stop-color="#7c2e88" />
                <stop offset="1" stop-color="#5d2f88" />
            </radialGradient>
            <linearGradient id="c" gradientUnits="userSpaceOnUse" x1="83.212" x2="137.371" y1="62.336" y2="62.336">
                <stop offset="0" stop-color="#e01d84" />
                <stop offset=".238" stop-color="#da1e85" />
                <stop offset=".658" stop-color="#c72085" />
                <stop offset=".999" stop-color="#b52284" />
            </linearGradient>
            <path
                d="M29.6 175.3c-5.2-16.2-6.7-33.3-3.7-50.9 1.3-7.3 3.3-14.3 5.5-21.4 0 0 13.8-45.3 60.5-66 0 0 16.1-8.5 40.3-9.1 0 0-3.3-3.2-5.4-4.6-11.4-7.6-28.4-10.1-38.7.6-3.1 3.2-5.7 6.7-8.6 9.9-3.3 3.6-7.3 6.6-11.9 8.3-4 1.5-8 1.2-12.1 1.9-4.2.7-8.5 2.2-11.9 4.9-3.7 3-5.2 7-5.6 11.6-.4 3.6-.3 7.3-.5 10.9C37 82 33.6 85 26 90.9c-3.2 2.4-5.9 5.6-7.9 9-6 10.6 3.6 21.6 4.1 32.3.1 2.2-.1 4.4-.9 6.5-.8 2.3-2.4 3.8-3.7 5.7-1.8 2.5-3 5.5-2.5 8.6s2.1 6 3.6 8.7c2.9 4.8 6.5 9.1 10.3 13.2.2 0 .4.2.6.4"
                fill="#e32286" />
            <path
                d="M220.4 213.7c23-10 32.8-27.3 32.8-27.3 21.5-29.3 14.2-60.2 14.2-60.2-13.7 29.8-26.2 38-26.2 38 33.7-51.3.2-82.3.2-82.3 13.7 29.2-4.5 64.8-4.5 64.8-15.3 32.2-37 43.7-37 43.7 24.2 4.5 42-11.8 42-11.8-34.7 37.5-72.3 35.7-72.3 35.7 15.8 17.7 39.5 16.2 39.5 16.2-31 7.3-60.1-3-84-22.9-4.5-3.7-8.8-7.7-12.8-12 0 0-3.6-3.8-4.3-4.8l-.1-.1c-.5 18.5 18.8 35.7 18.8 35.7-24.2-10-35.3-31.7-35.3-31.7s-16.3-27.8-4.5-59.5 47.5-38.5 47.5-38.5c29.5 14.3 54.5 18.8 54.5 18.8 52.7 8.8 49.7-17 49.7-17 .5-22.2-33-45.8-33-45.8C145.9 8.4 91.9 37 91.9 37c-46.7 20.7-60.5 66-60.5 66-2.2 7.1-4.2 14.1-5.5 21.4-5.1 29.7 2.6 57.8 19.3 82.8 26 38.8 68.2 52.2 68.2 52.2 62.5 21.2 105.2-10 105.2-10 39.3-27 47.2-58.2 47.2-58.2-31.7 24.8-45.4 22.5-45.4 22.5zM171.6 67.8c3 0 5.4 2.4 5.4 5.4s-2.4 5.4-5.4 5.4-5.4-2.4-5.4-5.4 2.4-5.4 5.4-5.4z"
                fill="url(#a)" />
            <path
                d="M238.5 98.4c.5-22.2-33-45.8-33-45.8C145.8 8.4 91.8 37 91.8 37c-46.7 20.7-60.5 66-60.5 66-2.7 7.7-5.1 19.5-5.1 19.5-2.9 14.8-1.6 28.5-1.6 28.5 1.2 13.1 4.1 21.9 4.1 21.9 3 9.4 4.4 12.3 4.4 12.3-.1-.3-.6-2.5-.6-2.5s-4.2-20.2-.3-39.6c0 0 3.4-20.2 17.2-35.8 0 0 22.4-31.9 64.1-19.4 0 0 9 3.2 12.1 4.8 3.1 1.5 8.5 3.8 8.5 3.8 29.5 14.3 54.5 18.8 54.5 18.8 52.9 8.9 49.9-16.9 49.9-16.9zm-66.9-19.7c-3 0-5.4-2.4-5.4-5.4s2.4-5.4 5.4-5.4 5.4 2.4 5.4 5.4-2.4 5.4-5.4 5.4z"
                fill="url(#b)" />
            <path d="M137.4 58.2l-34.1-10.6c-.2 0-1.2-.5-3 0 0 0-20.1 5.1-16.6 16.1 0 0 2.1 6.9 7.8 13.6l37.5-1.8z"
                fill="url(#c)" />
        </symbol>

    </defs>
</svg>