<svg aria-hidden="true" version="1.1" xmlns="http://www.w3.org/2000/svg" xmlns:xlink="http://www.w3.org/1999/xlink">
    <defs>
        <symbol id="icon-vue" viewBox="0 0 512 512">
            <polygon fill="#283542"
                points="256 144.03 200.51 47.92 121.08 47.92 256 281.61 390.92 47.92 311.49 47.92 256 144.03" />
            <polygon fill="#357759"
                points="409.4 47.92 256 313.61 102.6 47.92 15.74 47.92 256 464.08 496.26 47.92 409.4 47.92" />
        </symbol>

        <symbol id="icon-ang" viewBox="0 0 24 24">
            <path fill="#DD0031"
                d='M9.93 12.645h4.134L11.996 7.74M11.996.009L.686 3.988l1.725 14.76 9.585 5.243 9.588-5.238L23.308 3.99 11.996.01zm7.058 18.297h-2.636l-1.42-3.501H8.995l-1.42 3.501H4.937l7.06-15.648 7.057 15.648z' />
        </symbol>

        <symbol id="icon-nest" viewBox="0 0 18 18">
            <path fill="#E1444E"
                d="M9.97.033c-.122 0-.236.026-.34.06.223.15.345.345.407.568.004.03.013.052.017.083s.01.052.01.08c.018.385-.1.433-.184.66-.127.293-.092.608.06.86a.52.52 0 0 0 .052.096c-.166-1.106.757-1.273.927-1.618.013-.302-.236-.503-.433-.643-.188-.114-.36-.15-.516-.15zm1.39.25c-.018.1-.004.074-.01.127l-.01.114-.03.105c-.01.035-.022.07-.035.105l-.048.1c-.013.018-.022.035-.035.052l-.026.04-.066.087c-.026.026-.048.057-.08.08s-.052.052-.083.074c-.092.07-.197.122-.293.188-.03.022-.06.04-.087.066a.64.64 0 0 0-.083.07c-.03.026-.052.052-.08.083s-.048.057-.066.087l-.06.092-.048.1-.035.1-.03.11c-.004.018-.004.04-.01.057s-.004.035-.01.052l-.004.11c0 .026 0 .052.004.08 0 .035.004.07.013.11s.013.07.022.105l.035.105c.01.022.022.044.03.06l-1.006-.39-.507-.13-.276-.066a8.12 8.12 0 0 0-.796-.118c-.01 0-.013-.004-.022-.004l-.783-.04-.573.022c-.267.018-.534.052-.8.096l-.197.035-.394.087-.197.052-.188.083-.144.066c-.01.004-.018.004-.022.01l-.122.06c-.013.004-.022.01-.03.013l-.136.07c-.03.013-.06.03-.087.044-.013.01-.03.017-.04.022l-.114.066a1.1 1.1 0 0 0-.105.066l-.087.06-.096.07-.074.06c-.01.004-.018.013-.026.018l-.066.057c-.004.01-.013.013-.018.018l-.08.074-.087.083-.074.08c-.01.01-.022.018-.03.026a1.23 1.23 0 0 1-.074.079c-.004.01-.013.013-.018.022l-.1.105-.236.227c-.08.07-.162.136-.245.192l-.262.166c-.087.048-.18.092-.276.13a3.15 3.15 0 0 1-.284.105c-.184.04-.372.114-.534.127-.035 0-.074.01-.11.013l-.11.026-.105.04a1.12 1.12 0 0 0-.105.048c-.03.022-.066.04-.096.06s-.06.048-.087.074-.06.052-.087.08l-.074.087c-.022.035-.048.066-.066.1a.77.77 0 0 0-.061.101l-.048.114-.04.114-.022.105c-.013.052-.013.105-.018.13S0 5.635 0 5.666a.25.25 0 0 0 .004.057c.004.03.01.057.018.083l.03.08c.013.03.03.057.048.083l.057.08.074.07a.64.64 0 0 0 .083.07c.105.092.13.122.267.192.022.013.044.022.07.035.013.013.013.017.018.026.004.035.013.07.022.105a.59.59 0 0 0 .035.105l.035.08c.004.01.01.018.013.022l.052.096.066.092.074.083c.026.026.052.048.083.074l.087.066c.03.022.06.04.096.057a.71.71 0 0 0 .101.048c.026.013.057.022.087.03s.057.018.074.022c-.013.236-.018.46.018.538.04.087.232-.18.424-.485-.026.302-.044.656 0 .76s.31-.232.538-.608c3.1-.717 5.93 1.426 6.227 4.452-.057-.472-.638-.735-.905-.67-.13.324-.354.74-.713.997.03-.29.017-.586-.044-.875a2.83 2.83 0 0 1-.542 1.102c-.415.03-.83-.17-1.05-.472-.018-.013-.022-.04-.035-.057l-.035-.092c-.013-.03-.022-.06-.026-.092s-.004-.06-.004-.096v-.066c.004-.03.013-.06.022-.092l.03-.092c.018-.03.03-.06.052-.092.074-.2.074-.38-.06-.48-.026-.018-.052-.03-.083-.044-.018-.004-.04-.013-.057-.018l-.035-.013-.092-.022a.33.33 0 0 0-.092-.013.71.71 0 0 0-.096-.009c-.022 0-.044.004-.066.004a.34.34 0 0 0-.096.013l-.092.017-.092.03-.087.04-.083.044c-1.02.665-.41 2.22.284 2.672-.262.048-.53.105-.603.162.18.122.376.22.582.302l.708.2c.363.08.73.105 1.102.083a4.16 4.16 0 0 0 3.813-3.551l.026.114.04.245.018.118.01.13.01.144v.07c0 .022.004.048.004.07s-.004.052-.004.08v.06c0 .03-.004.057-.004.087 0 .017 0 .035-.004.057l-.004.096c-.004.013-.004.026-.004.04l-.013.1c0 .013 0 .026-.004.04l-.017.127v.01l-.026.122-.026.13-.035.136-.035.136-.044.14-.096.254-.052.127-.06.122c-.004.013-.01.022-.013.03-.293.586-.713 1.09-1.238 1.482-.035.022-.07.048-.105.074-.01.01-.022.013-.03.022l-.096.066.013.026h.004l.184-.026h.004l.34-.06c.03-.004.066-.013.096-.022l.06-.013.092-.017.08-.022c.437-.105.86-.25 1.268-.42-.695.95-1.627 1.714-2.716 2.217.503-.035 1.006-.118 1.49-.258 1.762-.52 3.245-1.705 4.133-3.302a6.98 6.98 0 0 1-1.176 2.812c.424-.28.813-.603 1.168-.97a6.93 6.93 0 0 0 1.841-3.717c.15.69.192 1.404.127 2.108 3.157-4.404.262-8.97-.95-10.172-.004-.01-.01-.013-.01-.022-.01.052-.013.105-.017.157-.013.1-.026.197-.044.293s-.048.192-.074.29-.066.188-.105.28-.083.18-.13.267a2.98 2.98 0 0 1-.157.249c-.057.083-.118.162-.18.236a3.27 3.27 0 0 1-.206.219c-.044.04-.083.074-.127.11l-.1.087a2.44 2.44 0 0 1-.245.171 3.03 3.03 0 0 1-.258.149c-.092.044-.184.083-.276.122a3.08 3.08 0 0 1-.284.092c-.096.026-.197.048-.293.066s-.2.026-.297.035c-.07.004-.14.01-.2.01-.1 0-.2-.01-.297-.018s-.2-.022-.298-.044a2.21 2.21 0 0 1-.293-.074h-.004c.096-.01.192-.018.29-.035s.197-.04.293-.066.192-.057.284-.092.188-.08.276-.122a3.06 3.06 0 0 0 .262-.144c.083-.057.166-.114.245-.175a2.39 2.39 0 0 0 .223-.197c.074-.066.14-.14.206-.214s.127-.157.184-.236c.01-.013.018-.03.026-.044l.127-.2c.048-.087.092-.175.13-.267s.074-.184.105-.28.052-.188.074-.284.035-.197.044-.293.017-.2.017-.297c0-.07-.004-.14-.01-.2-.01-.1-.022-.197-.035-.293a3.2 3.2 0 0 0-.066-.293c-.03-.092-.06-.188-.096-.28s-.08-.184-.122-.27-.096-.175-.15-.258-.114-.162-.175-.24l-.2-.223a2.73 2.73 0 0 0-.114-.109 8.05 8.05 0 0 0-.608-.429c-.03-.017-.057-.03-.087-.044-.144-.092-.28-.14-.415-.184z"
                fill-rule="evenodd" />
        </symbol>

        <symbol id="icon-html" viewBox="0 0 32 32">
            <path fill="#E44D26" d="M27.377 28.889 16.001 32 4.625 28.889 2 0h28.002z"></path>
            <path fill="#FF6C39" d="M16 2v27.75l9.232-2.742L27.688 2z"></path>
            <path fill="#FFFFFF"
                d="M24.363 6H7.607L8 10l.619 7h10.884l-.355 3.984L16 21.99l-3.143-1.006L12.648 19H8.803l.459 4.987L16 25.99l6.728-2.004.99-10.986H12.252l-.25-3H24z">
            </path>
        </symbol>

        <symbol id="icon-css" viewBox="0 0 32 32">
            <polygon fill="#1F62AE" points="27.377,28.889 16.001,32 4.625,28.889 2,0 30.002,0  " />
            <polygon fill="#347DC6" points="16,2 16,29.75 25.232,27.008 27.688,2  " />
            <polygon fill="#FFFFFF"
                points="24.363,6 7.607,6 8,10 16,10 8.25,12.99 8.619,17 19.502,17 19.158,21 16,21.99 12.861,20.984    12.533,19 8.803,19 9.262,23.987 16,25.99 22.728,23.986 23.719,12.99 16.026,12.99 24,10  " />
        </symbol>

        <symbol id="icon-js" viewBox="0 0 512 512">
            <rect height="100%" style="fill:#F0DB4F;" width="100%" />
            <path fill="#323330"
                d="M276.331,384.759c0,44.767-26.286,65.2-64.586,65.2c-34.601,0-54.623-17.865-64.892-39.529    l35.218-21.255c6.777,12.013,12.938,22.177,27.826,22.177c14.169,0,23.207-5.544,23.207-27.208V237.21h43.227V384.759    L276.331,384.759z" />
            <path fill="#323330"
                d="M378.598,449.959c-40.147,0-66.124-19.099-78.754-44.151l35.219-20.332    c9.241,15.095,21.356,26.286,42.611,26.286c17.866,0,29.364-8.932,29.364-21.355c0-14.787-11.704-20.021-31.52-28.75l-10.781-4.62    c-31.214-13.246-51.853-29.983-51.853-65.2c0-32.447,24.745-57.09,63.248-57.09c27.518,0,47.232,9.549,61.402,34.603    l-33.679,21.562c-7.392-13.246-15.401-18.481-27.825-18.481c-12.63,0-20.639,8.01-20.639,18.481    c0,12.938,8.009,18.176,26.594,26.285l10.78,4.621c36.759,15.71,57.397,31.832,57.397,67.974    C450.164,428.602,419.565,449.959,378.598,449.959L378.598,449.959z" />
        </symbol>

        <symbol id="icon-ts" viewBox="0 0 400 400">
            <path fill="#007acc" d="M0 200V0h400v400H0" />
            <path fill="#fff"
                d="M87.7 200.7V217h52v148h36.9V217h52v-16c0-9 0-16.3-.4-16.5 0-.3-31.7-.4-70.2-.4l-70 .3v16.4l-.3-.1zM321.4 184c10.2 2.4 18 7 25 14.3 3.7 4 9.2 11 9.6 12.8 0 .6-17.3 12.3-27.8 18.8-.4.3-2-1.4-3.6-4-5.2-7.4-10.5-10.6-18.8-11.2-12-.8-20 5.5-20 16 0 3.2.6 5 1.8 7.6 2.7 5.5 7.7 8.8 23.2 15.6 28.6 12.3 41 20.4 48.5 32 8.5 13 10.4 33.4 4.7 48.7-6.4 16.7-22 28-44.3 31.7-7 1.2-23 1-30.5-.3-16-3-31.3-11-40.7-21.3-3.7-4-10.8-14.7-10.4-15.4l3.8-2.4 15-8.7 11.3-6.6 2.6 3.5c3.3 5.2 10.7 12.2 15 14.6 13 6.7 30.4 5.8 39-2 3.7-3.4 5.3-7 5.3-12 0-4.6-.7-6.7-3-10.2-3.2-4.4-9.6-8-27.6-16-20.7-8.8-29.5-14.4-37.7-23-4.7-5.2-9-13.3-11-20-1.5-5.8-2-20-.6-25.7 4.3-20 19.4-34 41-38 7-1.4 23.5-.8 30.4 1l-.2.2z" />
        </symbol>
    </defs>
</svg>