<svg aria-hidden="true" version="1.1" xmlns="http://www.w3.org/2000/svg" xmlns:xlink="http://www.w3.org/1999/xlink">
    <defs>
        <symbol id="icon-vue" viewBox="0 0 512 512">
            <polygon fill="#283542"
                points="256 144.03 200.51 47.92 121.08 47.92 256 281.61 390.92 47.92 311.49 47.92 256 144.03" />
            <polygon fill="#357759"
                points="409.4 47.92 256 313.61 102.6 47.92 15.74 47.92 256 464.08 496.26 47.92 409.4 47.92" />
        </symbol>

        <symbol id="icon-ang" viewBox="0 0 24 24">
            <path fill="#DD0031"
                d='M9.93 12.645h4.134L11.996 7.74M11.996.009L.686 3.988l1.725 14.76 9.585 5.243 9.588-5.238L23.308 3.99 11.996.01zm7.058 18.297h-2.636l-1.42-3.501H8.995l-1.42 3.501H4.937l7.06-15.648 7.057 15.648z' />
        </symbol>

        <symbol id="icon-nest" viewBox="0 0 18 18">
            <path fill="#E1444E"
                d="M9.97.033c-.122 0-.236.026-.34.06.223.15.345.345.407.568.004.03.013.052.017.083s.01.052.01.08c.018.385-.1.433-.184.66-.127.293-.092.608.06.86a.52.52 0 0 0 .052.096c-.166-1.106.757-1.273.927-1.618.013-.302-.236-.503-.433-.643-.188-.114-.36-.15-.516-.15zm1.39.25c-.018.1-.004.074-.01.127l-.01.114-.03.105c-.01.035-.022.07-.035.105l-.048.1c-.013.018-.022.035-.035.052l-.026.04-.066.087c-.026.026-.048.057-.08.08s-.052.052-.083.074c-.092.07-.197.122-.293.188-.03.022-.06.04-.087.066a.64.64 0 0 0-.083.07c-.03.026-.052.052-.08.083s-.048.057-.066.087l-.06.092-.048.1-.035.1-.03.11c-.004.018-.004.04-.01.057s-.004.035-.01.052l-.004.11c0 .026 0 .052.004.08 0 .035.004.07.013.11s.013.07.022.105l.035.105c.01.022.022.044.03.06l-1.006-.39-.507-.13-.276-.066a8.12 8.12 0 0 0-.796-.118c-.01 0-.013-.004-.022-.004l-.783-.04-.573.022c-.267.018-.534.052-.8.096l-.197.035-.394.087-.197.052-.188.083-.144.066c-.01.004-.018.004-.022.01l-.122.06c-.013.004-.022.01-.03.013l-.136.07c-.03.013-.06.03-.087.044-.013.01-.03.017-.04.022l-.114.066a1.1 1.1 0 0 0-.105.066l-.087.06-.096.07-.074.06c-.01.004-.018.013-.026.018l-.066.057c-.004.01-.013.013-.018.018l-.08.074-.087.083-.074.08c-.01.01-.022.018-.03.026a1.23 1.23 0 0 1-.074.079c-.004.01-.013.013-.018.022l-.1.105-.236.227c-.08.07-.162.136-.245.192l-.262.166c-.087.048-.18.092-.276.13a3.15 3.15 0 0 1-.284.105c-.184.04-.372.114-.534.127-.035 0-.074.01-.11.013l-.11.026-.105.04a1.12 1.12 0 0 0-.105.048c-.03.022-.066.04-.096.06s-.06.048-.087.074-.06.052-.087.08l-.074.087c-.022.035-.048.066-.066.1a.77.77 0 0 0-.061.101l-.048.114-.04.114-.022.105c-.013.052-.013.105-.018.13S0 5.635 0 5.666a.25.25 0 0 0 .004.057c.004.03.01.057.018.083l.03.08c.013.03.03.057.048.083l.057.08.074.07a.64.64 0 0 0 .083.07c.105.092.13.122.267.192.022.013.044.022.07.035.013.013.013.017.018.026.004.035.013.07.022.105a.59.59 0 0 0 .035.105l.035.08c.004.01.01.018.013.022l.052.096.066.092.074.083c.026.026.052.048.083.074l.087.066c.03.022.06.04.096.057a.71.71 0 0 0 .101.048c.026.013.057.022.087.03s.057.018.074.022c-.013.236-.018.46.018.538.04.087.232-.18.424-.485-.026.302-.044.656 0 .76s.31-.232.538-.608c3.1-.717 5.93 1.426 6.227 4.452-.057-.472-.638-.735-.905-.67-.13.324-.354.74-.713.997.03-.29.017-.586-.044-.875a2.83 2.83 0 0 1-.542 1.102c-.415.03-.83-.17-1.05-.472-.018-.013-.022-.04-.035-.057l-.035-.092c-.013-.03-.022-.06-.026-.092s-.004-.06-.004-.096v-.066c.004-.03.013-.06.022-.092l.03-.092c.018-.03.03-.06.052-.092.074-.2.074-.38-.06-.48-.026-.018-.052-.03-.083-.044-.018-.004-.04-.013-.057-.018l-.035-.013-.092-.022a.33.33 0 0 0-.092-.013.71.71 0 0 0-.096-.009c-.022 0-.044.004-.066.004a.34.34 0 0 0-.096.013l-.092.017-.092.03-.087.04-.083.044c-1.02.665-.41 2.22.284 2.672-.262.048-.53.105-.603.162.18.122.376.22.582.302l.708.2c.363.08.73.105 1.102.083a4.16 4.16 0 0 0 3.813-3.551l.026.114.04.245.018.118.01.13.01.144v.07c0 .022.004.048.004.07s-.004.052-.004.08v.06c0 .03-.004.057-.004.087 0 .017 0 .035-.004.057l-.004.096c-.004.013-.004.026-.004.04l-.013.1c0 .013 0 .026-.004.04l-.017.127v.01l-.026.122-.026.13-.035.136-.035.136-.044.14-.096.254-.052.127-.06.122c-.004.013-.01.022-.013.03-.293.586-.713 1.09-1.238 1.482-.035.022-.07.048-.105.074-.01.01-.022.013-.03.022l-.096.066.013.026h.004l.184-.026h.004l.34-.06c.03-.004.066-.013.096-.022l.06-.013.092-.017.08-.022c.437-.105.86-.25 1.268-.42-.695.95-1.627 1.714-2.716 2.217.503-.035 1.006-.118 1.49-.258 1.762-.52 3.245-1.705 4.133-3.302a6.98 6.98 0 0 1-1.176 2.812c.424-.28.813-.603 1.168-.97a6.93 6.93 0 0 0 1.841-3.717c.15.69.192 1.404.127 2.108 3.157-4.404.262-8.97-.95-10.172-.004-.01-.01-.013-.01-.022-.01.052-.013.105-.017.157-.013.1-.026.197-.044.293s-.048.192-.074.29-.066.188-.105.28-.083.18-.13.267a2.98 2.98 0 0 1-.157.249c-.057.083-.118.162-.18.236a3.27 3.27 0 0 1-.206.219c-.044.04-.083.074-.127.11l-.1.087a2.44 2.44 0 0 1-.245.171 3.03 3.03 0 0 1-.258.149c-.092.044-.184.083-.276.122a3.08 3.08 0 0 1-.284.092c-.096.026-.197.048-.293.066s-.2.026-.297.035c-.07.004-.14.01-.2.01-.1 0-.2-.01-.297-.018s-.2-.022-.298-.044a2.21 2.21 0 0 1-.293-.074h-.004c.096-.01.192-.018.29-.035s.197-.04.293-.066.192-.057.284-.092.188-.08.276-.122a3.06 3.06 0 0 0 .262-.144c.083-.057.166-.114.245-.175a2.39 2.39 0 0 0 .223-.197c.074-.066.14-.14.206-.214s.127-.157.184-.236c.01-.013.018-.03.026-.044l.127-.2c.048-.087.092-.175.13-.267s.074-.184.105-.28.052-.188.074-.284.035-.197.044-.293.017-.2.017-.297c0-.07-.004-.14-.01-.2-.01-.1-.022-.197-.035-.293a3.2 3.2 0 0 0-.066-.293c-.03-.092-.06-.188-.096-.28s-.08-.184-.122-.27-.096-.175-.15-.258-.114-.162-.175-.24l-.2-.223a2.73 2.73 0 0 0-.114-.109 8.05 8.05 0 0 0-.608-.429c-.03-.017-.057-.03-.087-.044-.144-.092-.28-.14-.415-.184z"
                fill-rule="evenodd" />
        </symbol>

        <symbol id="icon-html" viewBox="0 0 32 32">
            <path fill="#E44D26" d="M27.377 28.889 16.001 32 4.625 28.889 2 0h28.002z"></path>
            <path fill="#FF6C39" d="M16 2v27.75l9.232-2.742L27.688 2z"></path>
            <path fill="#FFFFFF"
                d="M24.363 6H7.607L8 10l.619 7h10.884l-.355 3.984L16 21.99l-3.143-1.006L12.648 19H8.803l.459 4.987L16 25.99l6.728-2.004.99-10.986H12.252l-.25-3H24z">
            </path>
        </symbol>

        <symbol id="icon-css" viewBox="0 0 32 32">
            <polygon fill="#1F62AE" points="27.377,28.889 16.001,32 4.625,28.889 2,0 30.002,0  " />
            <polygon fill="#347DC6" points="16,2 16,29.75 25.232,27.008 27.688,2  " />
            <polygon fill="#FFFFFF"
                points="24.363,6 7.607,6 8,10 16,10 8.25,12.99 8.619,17 19.502,17 19.158,21 16,21.99 12.861,20.984    12.533,19 8.803,19 9.262,23.987 16,25.99 22.728,23.986 23.719,12.99 16.026,12.99 24,10  " />
        </symbol>

        <symbol id="icon-js" viewBox="0 0 512 512">
            <rect height="100%" fill="#F0DB4F" width="100%" />
            <path fill="#323330"
                d="M276.331,384.759c0,44.767-26.286,65.2-64.586,65.2c-34.601,0-54.623-17.865-64.892-39.529    l35.218-21.255c6.777,12.013,12.938,22.177,27.826,22.177c14.169,0,23.207-5.544,23.207-27.208V237.21h43.227V384.759    L276.331,384.759z" />
            <path fill="#323330"
                d="M378.598,449.959c-40.147,0-66.124-19.099-78.754-44.151l35.219-20.332    c9.241,15.095,21.356,26.286,42.611,26.286c17.866,0,29.364-8.932,29.364-21.355c0-14.787-11.704-20.021-31.52-28.75l-10.781-4.62    c-31.214-13.246-51.853-29.983-51.853-65.2c0-32.447,24.745-57.09,63.248-57.09c27.518,0,47.232,9.549,61.402,34.603    l-33.679,21.562c-7.392-13.246-15.401-18.481-27.825-18.481c-12.63,0-20.639,8.01-20.639,18.481    c0,12.938,8.009,18.176,26.594,26.285l10.78,4.621c36.759,15.71,57.397,31.832,57.397,67.974    C450.164,428.602,419.565,449.959,378.598,449.959L378.598,449.959z" />
        </symbol>

        <symbol id="icon-ts" viewBox="0 0 400 400">
            <path fill="#007acc" d="M0 200V0h400v400H0" />
            <path fill="#fff"
                d="M87.7 200.7V217h52v148h36.9V217h52v-16c0-9 0-16.3-.4-16.5 0-.3-31.7-.4-70.2-.4l-70 .3v16.4l-.3-.1zM321.4 184c10.2 2.4 18 7 25 14.3 3.7 4 9.2 11 9.6 12.8 0 .6-17.3 12.3-27.8 18.8-.4.3-2-1.4-3.6-4-5.2-7.4-10.5-10.6-18.8-11.2-12-.8-20 5.5-20 16 0 3.2.6 5 1.8 7.6 2.7 5.5 7.7 8.8 23.2 15.6 28.6 12.3 41 20.4 48.5 32 8.5 13 10.4 33.4 4.7 48.7-6.4 16.7-22 28-44.3 31.7-7 1.2-23 1-30.5-.3-16-3-31.3-11-40.7-21.3-3.7-4-10.8-14.7-10.4-15.4l3.8-2.4 15-8.7 11.3-6.6 2.6 3.5c3.3 5.2 10.7 12.2 15 14.6 13 6.7 30.4 5.8 39-2 3.7-3.4 5.3-7 5.3-12 0-4.6-.7-6.7-3-10.2-3.2-4.4-9.6-8-27.6-16-20.7-8.8-29.5-14.4-37.7-23-4.7-5.2-9-13.3-11-20-1.5-5.8-2-20-.6-25.7 4.3-20 19.4-34 41-38 7-1.4 23.5-.8 30.4 1l-.2.2z" />
        </symbol>

        <symbol id="icon-sass" viewBox="0 0 512 512">
            <path fill="#CF649A"
                d="M422.009,281.793c-16.096,0.071-30.035,3.952-41.675,9.701c-4.24-8.553-8.624-16.025-9.343-21.629     c-0.86-6.54-1.796-10.419-0.789-18.179c1.007-7.762,5.532-18.756,5.461-19.545c-0.071-0.79-1.006-4.743-10.275-4.815     c-9.269-0.071-17.244,1.796-18.179,4.239c-0.936,2.443-2.73,7.977-3.808,13.725c-1.653,8.407-18.54,38.443-28.097,54.107     c-3.161-6.106-5.819-11.497-6.395-15.808c-0.862-6.54-1.796-10.419-0.79-18.179c1.006-7.762,5.532-18.756,5.46-19.545     c-0.072-0.79-1.006-4.743-10.274-4.815c-9.27-0.071-17.244,1.796-18.18,4.24c-0.934,2.442-1.94,8.191-3.808,13.726     c-1.867,5.53-24.359,55.541-30.251,68.548c-3.019,6.609-5.604,11.927-7.473,15.521c-0.286,0.574-0.502,0.934-0.646,1.222     c0.215-0.359,0.36-0.72,0.36-0.574c-1.581,3.088-2.516,4.813-2.516,4.813v0.071c-1.222,2.299-2.587,4.382-3.233,4.382     c-0.432,0-1.365-6.034,0.216-14.298c3.376-17.389,11.352-44.404,11.28-45.34c-0.072-0.503,1.508-5.173-5.246-7.689     c-6.538-2.371-8.91,1.582-9.484,1.582s-1.006,1.438-1.006,1.438s7.258-30.467-13.94-30.467     c-13.221,0-31.615,14.516-40.668,27.665c-5.677,3.09-17.965,9.772-30.898,16.885c-4.958,2.731-10.06,5.532-14.874,8.192     c-0.359-0.361-0.647-0.72-1.006-1.079c-25.724-27.447-73.22-46.848-71.207-83.711c0.718-13.437,5.389-48.716,91.327-91.542     c70.418-35.065,126.751-25.436,136.453-4.024c13.938,30.539-30.109,87.376-103.256,95.566     c-27.88,3.09-42.537-7.688-46.202-11.711c-3.809-4.239-4.384-4.456-5.821-3.665c-2.372,1.293-0.862,5.03,0,7.257     c2.156,5.676,11.137,15.736,26.443,20.766c13.435,4.383,46.13,6.827,85.649-8.479c44.406-17.102,78.969-64.742,68.837-104.62     C303.809,85.2,236.625,71.906,173.034,94.468c-37.867,13.437-78.824,34.563-108.285,62.082     c-34.993,32.767-40.597,61.292-38.299,73.221c8.192,42.321,66.537,69.914,89.89,90.32c-1.15,0.647-2.228,1.222-3.233,1.797     c-11.712,5.819-56.19,29.1-67.328,53.677c-12.573,27.879,2.083,47.853,11.712,50.585c30.035,8.334,60.789-6.683,77.316-31.33     c16.525-24.645,14.514-56.836,6.898-71.495c-0.073-0.215-0.216-0.357-0.287-0.575c3.017-1.795,6.106-3.592,9.197-5.388     c5.963-3.521,11.784-6.756,16.885-9.556c-2.875,7.761-4.958,17.098-6.036,30.609c-1.293,15.807,5.246,36.286,13.725,44.334     c3.735,3.521,8.262,3.594,11.065,3.594c9.916,0,14.37-8.193,19.328-17.965c6.108-11.93,11.497-25.798,11.497-25.798     s-6.754,37.511,11.712,37.511c6.754,0,13.51-8.695,16.526-13.15v0.071c0,0,0.145-0.286,0.504-0.86     c0.718-1.079,1.077-1.726,1.077-1.726v-0.217c2.73-4.67,8.695-15.377,17.675-33.052c11.642-22.851,22.778-51.378,22.778-51.378     s1.006,6.972,4.457,18.54c2.011,6.826,6.25,14.299,9.627,21.557c-2.729,3.736-4.383,5.892-4.383,5.892s0,0.071,0.07,0.143     c-2.155,2.876-4.597,5.966-7.112,8.984c-9.198,10.921-20.12,23.425-21.556,27.017c-1.726,4.24-1.294,7.399,2.012,9.844     c2.442,1.869,6.754,2.155,11.28,1.797c8.264-0.577,14.084-2.587,16.886-3.883c4.454-1.578,9.629-4.095,14.515-7.615     c8.982-6.609,14.444-16.094,13.939-28.597c-0.287-6.898-2.516-13.797-5.246-20.262c0.791-1.151,1.654-2.374,2.444-3.593     c14.229-20.769,25.222-43.544,25.222-43.544s1.006,6.968,4.454,18.537c1.725,5.821,5.102,12.216,8.191,18.466     c-13.365,10.851-21.627,23.427-24.502,31.688c-5.318,15.306-1.15,22.202,6.682,23.786c3.521,0.718,8.551-0.936,12.288-2.517     c4.67-1.581,10.275-4.096,15.52-7.976c8.982-6.609,17.677-15.88,17.103-28.454c-0.217-5.677-1.797-11.353-3.881-16.814     c11.28-4.741,25.941-7.33,44.622-5.173c40.023,4.67,47.854,29.675,46.345,40.093c-1.507,10.492-9.914,16.241-12.717,17.965     c-2.804,1.725-3.665,2.372-3.448,3.665c0.358,1.868,1.651,1.797,4.022,1.364c3.307-0.574,20.982-8.479,21.771-27.808     C487.108,308.45,463.613,281.578,422.009,281.793L422.009,281.793z M113.538,385.766c-13.22,14.443-31.759,19.904-39.734,15.305     c-8.551-4.956-5.174-26.226,11.137-41.604c9.916-9.34,22.706-17.962,31.185-23.279c1.94-1.149,4.743-2.874,8.192-4.958     c0.575-0.357,0.862-0.502,0.862-0.502c0.646-0.433,1.365-0.791,2.084-1.223C133.226,351.349,127.478,370.605,113.538,385.766     L113.538,385.766z M210.111,320.091c-4.599,11.28-14.3,40.023-20.19,38.514c-5.03-1.294-8.121-23.209-1.006-44.764     c3.592-10.851,11.208-23.784,15.736-28.813c7.256-8.121,15.232-10.708,17.101-7.474     C224.266,281.793,212.984,313.05,210.111,320.091L210.111,320.091z M289.868,358.176c-1.939,1.005-3.736,1.651-4.598,1.148     c-0.646-0.359,0.791-1.725,0.791-1.725s9.986-10.706,13.939-15.594c2.299-2.873,4.957-6.251,7.832-9.986     c0,0.357,0.07,0.719,0.07,1.148C307.833,346.031,295.474,354.727,289.868,358.176z M351.377,344.163     c-1.437-1.006-1.223-4.383,3.592-14.875c1.869-4.096,6.181-10.993,13.652-17.604c0.863,2.73,1.365,5.316,1.365,7.759     C369.913,335.611,358.346,341.647,351.377,344.163L351.377,344.163z" />
        </symbol>

        <symbol id="icon-rest" viewBox='0 0 24 24'>
            <g transform="matrix(0.43 0 0 0.43 12 12)">
                <path fill="#fff" transform="translate(-25, -25)"
                    d="M 21.8125 2 C 20.867188 2 20.03125 2.664063 19.84375 3.59375 L 19.375 5.9375 C 16.277344 6.851563 13.492188 8.417969 11.21875 10.59375 L 9.03125 9.84375 C 8.140625 9.542969 7.164063 9.945313 6.6875 10.75 L 3.5 16.25 C 3.027344 17.070313 3.191406 18.125 3.90625 18.75 L 5.65625 20.3125 C 5.285156 21.820313 5 23.371094 5 25 C 5 26.628906 5.289063 28.179688 5.65625 29.6875 L 3.90625 31.25 C 3.195313 31.875 3.027344 32.929688 3.5 33.75 L 6.65625 39.25 C 7.128906 40.070313 8.132813 40.460938 9.03125 40.15625 L 11.21875 39.40625 C 13.492188 41.582031 16.28125 43.148438 19.375 44.0625 L 19.84375 46.40625 C 20.03125 47.332031 20.867188 48 21.8125 48 L 28.1875 48 C 29.132813 48 29.96875 47.335938 30.15625 46.40625 L 30.625 44.0625 C 33.722656 43.148438 36.507813 41.582031 38.78125 39.40625 L 40.96875 40.15625 C 41.859375 40.457031 42.835938 40.054688 43.3125 39.25 L 46.5 33.75 C 46.972656 32.929688 46.804688 31.875 46.09375 31.25 L 44.34375 29.6875 C 44.710938 28.179688 45 26.628906 45 25 C 45 23.371094 44.710938 21.820313 44.34375 20.3125 L 46.09375 18.75 C 46.804688 18.125 46.972656 17.070313 46.5 16.25 L 43.34375 10.75 C 42.871094 9.929688 41.867188 9.539063 40.96875 9.84375 L 38.78125 10.59375 C 36.507813 8.417969 33.71875 6.851563 30.625 5.9375 L 30.15625 3.59375 C 29.96875 2.667969 29.132813 2 28.1875 2 Z M 21.8125 4 L 28.1875 4 L 28.875 7.4375 L 29.46875 7.59375 C 32.703125 8.421875 35.582031 10.09375 37.84375 12.40625 L 38.28125 12.875 L 38.90625 12.65625 L 41.59375 11.75 L 44.78125 17.25 L 42.625 19.15625 L 42.15625 19.5625 L 42.3125 20.15625 C 42.742188 21.703125 43 23.328125 43 25 C 43 26.671875 42.742188 28.296875 42.3125 29.84375 L 42.15625 30.4375 L 42.625 30.84375 L 44.78125 32.75 L 41.59375 38.25 L 38.875 37.34375 L 38.28125 37.125 L 37.84375 37.59375 C 35.582031 39.902344 32.703125 41.578125 29.46875 42.40625 L 28.875 42.5625 L 28.1875 46 L 21.8125 46 L 21.125 42.5625 L 20.53125 42.40625 C 17.296875 41.578125 14.417969 39.90625 12.15625 37.59375 L 11.71875 37.125 L 11.09375 37.34375 L 8.40625 38.25 L 5.21875 32.75 L 7.375 30.84375 L 7.84375 30.4375 L 7.6875 29.84375 C 7.257813 28.296875 7 26.671875 7 25 C 7 23.328125 7.253906 21.703125 7.6875 20.15625 L 7.84375 19.5625 L 7.375 19.15625 L 5.21875 17.25 L 8.40625 11.75 L 11.125 12.65625 L 11.71875 12.875 L 12.15625 12.40625 C 14.417969 10.097656 17.296875 8.421875 20.53125 7.59375 L 21.125 7.4375 Z M 34.90625 17.96875 C 34.863281 17.976563 34.820313 17.988281 34.78125 18 L 34 18 C 33.96875 18 33.9375 18 33.90625 18 C 33.355469 18.027344 32.925781 18.496094 32.953125 19.046875 C 32.980469 19.597656 33.449219 20.027344 34 20 L 34 30 C 33.96875 30 33.9375 30 33.90625 30 C 33.355469 30.027344 32.925781 30.496094 32.953125 31.046875 C 32.980469 31.597656 33.449219 32.027344 34 32 L 36 32 C 36.359375 32.003906 36.695313 31.816406 36.878906 31.503906 C 37.058594 31.191406 37.058594 30.808594 36.878906 30.496094 C 36.695313 30.183594 36.359375 29.996094 36 30 L 36 20 C 36.359375 20.003906 36.695313 19.816406 36.878906 19.503906 C 37.058594 19.191406 37.058594 18.808594 36.878906 18.496094 C 36.695313 18.183594 36.359375 17.996094 36 18 L 35.1875 18 C 35.097656 17.976563 35 17.964844 34.90625 17.96875 Z M 16.375 18 C 15.972656 18.046875 15.640625 18.332031 15.53125 18.71875 L 12.03125 30.09375 C 12.003906 30.195313 11.992188 30.300781 12 30.40625 L 12 31 C 11.996094 31.359375 12.183594 31.695313 12.496094 31.878906 C 12.808594 32.058594 13.191406 32.058594 13.503906 31.878906 C 13.816406 31.695313 14.003906 31.359375 14 31 L 14 30.59375 L 14.5 29 L 18.5 29 L 19 30.59375 L 19 31 C 18.996094 31.359375 19.183594 31.695313 19.496094 31.878906 C 19.808594 32.058594 20.191406 32.058594 20.503906 31.878906 C 20.816406 31.695313 21.003906 31.359375 21 31 L 21 30.40625 C 21.007813 30.300781 20.996094 30.195313 20.96875 30.09375 L 17.46875 18.71875 C 17.332031 18.242188 16.867188 17.933594 16.375 18 Z M 23.8125 18 C 23.335938 18.089844 22.992188 18.511719 23 19 L 23 25.8125 C 22.972656 25.945313 22.972656 26.085938 23 26.21875 L 23 31 C 22.996094 31.359375 23.183594 31.695313 23.496094 31.878906 C 23.808594 32.058594 24.191406 32.058594 24.503906 31.878906 C 24.816406 31.695313 25.003906 31.359375 25 31 L 25 27 L 28 27 C 29.644531 27 31 25.644531 31 24 L 31 21 C 31 19.355469 29.644531 18 28 18 L 24 18 C 23.96875 18 23.9375 18 23.90625 18 C 23.875 18 23.84375 18 23.8125 18 Z M 25 20 L 28 20 C 28.566406 20 29 20.433594 29 21 L 29 24 C 29 24.566406 28.566406 25 28 25 L 25 25 Z M 16.5 22.4375 L 17.90625 27 L 15.09375 27 Z"
                    stroke-linecap="round" />
            </g>
        </symbol>

        <symbol id="icon-http" viewBox='0 0 24 24'>
            <g transform="matrix(0.83 0 0 0.83 12 12)">
                <g transform="matrix(1 0 0 1 0.6 7.34)">
                    <path fill="#fff" transform=" translate(-12.61, -19.34)"
                        d="M 13.67 15.93 L 11.54 15.93 C 11.125786437626903 15.93 10.79 16.265786437626904 10.79 16.68 C 10.79 17.094213562373096 11.125786437626903 17.43 11.54 17.43 L 11.6 17.43 C 11.738071187457699 17.43 11.85 17.541928812542302 11.85 17.68 L 11.85 22 C 11.85 22.414213562373096 12.185786437626904 22.75 12.6 22.75 C 13.014213562373095 22.75 13.35 22.414213562373096 13.35 22 L 13.35 17.68 C 13.35 17.541928812542302 13.4619288125423 17.43 13.6 17.43 L 13.67 17.43 C 14.084213562373096 17.43 14.42 17.094213562373096 14.42 16.68 C 14.42 16.265786437626904 14.084213562373096 15.93 13.67 15.93 Z"
                        stroke-linecap="round" />
                </g>
                <g transform="matrix(1 0 0 1 5.39 7.34)">
                    <path fill="#fff" transform=" translate(-17.39, -19.34)"
                        d="M 18.46 15.93 L 16.33 15.93 C 15.915786437626902 15.93 15.579999999999998 16.265786437626904 15.579999999999998 16.68 C 15.579999999999998 17.094213562373096 15.915786437626902 17.43 16.33 17.43 L 16.4 17.43 C 16.538071187457696 17.43 16.65 17.541928812542302 16.65 17.68 L 16.65 22 C 16.65 22.414213562373096 16.985786437626903 22.75 17.4 22.75 C 17.814213562373094 22.75 18.15 22.414213562373096 18.15 22 L 18.15 17.68 C 18.15 17.541928812542302 18.2619288125423 17.43 18.4 17.43 L 18.459999999999997 17.43 C 18.874213562373093 17.43 19.209999999999997 17.094213562373096 19.209999999999997 16.68 C 19.209999999999997 16.265786437626904 18.874213562373093 15.93 18.459999999999997 15.93 Z"
                        stroke-linecap="round" />
                </g>
                <g transform="matrix(1 0 0 1 -4.44 7.34)">
                    <path fill="#fff" transform=" translate(-7.56, -19.34)"
                        d="M 8.88 15.93 C 8.680266847360135 15.927282163062404 8.487918223697251 16.005426740989968 8.34667248234361 16.146672482343607 C 8.205426740989969 16.28791822369725 8.127282163062405 16.480266847360134 8.13 16.68 L 8.13 18.87 C 8.13 19.0080711874577 8.0180711874577 19.12 7.880000000000001 19.12 L 7.25 19.12 C 7.111928812542302 19.12 7 19.0080711874577 7 18.87 L 7 16.68 C 7 16.265786437626904 6.664213562373095 15.93 6.25 15.93 C 5.835786437626905 15.93 5.5 16.265786437626904 5.5 16.68 L 5.5 22 C 5.5 22.414213562373096 5.835786437626905 22.75 6.25 22.75 C 6.664213562373095 22.75 7 22.414213562373096 7 22 L 7 20.87 C 7 20.731928812542304 7.111928812542302 20.62 7.25 20.62 L 7.88 20.62 C 8.018071187457698 20.62 8.129999999999999 20.731928812542304 8.129999999999999 20.87 L 8.129999999999999 22 C 8.129999999999999 22.414213562373096 8.465786437626903 22.75 8.879999999999999 22.75 C 9.294213562373095 22.75 9.629999999999999 22.414213562373096 9.629999999999999 22 L 9.629999999999999 16.68 C 9.629999999999999 16.265786437626904 9.294213562373095 15.93 8.88 15.93 Z"
                        stroke-linecap="round" />
                </g>
                <g transform="matrix(1 0 0 1 10.18 7.34)">
                    <path fill="#fff" transform=" translate(-22.18, -19.34)"
                        d="M 21.65 15.93 L 21.119999999999997 15.93 C 20.7057864376269 15.93 20.369999999999997 16.265786437626904 20.369999999999997 16.68 L 20.369999999999997 22 C 20.369999999999997 22.414213562373096 20.7057864376269 22.75 21.119999999999997 22.75 C 21.534213562373093 22.75 21.869999999999997 22.414213562373096 21.869999999999997 22 L 21.869999999999997 20.82 C 21.872427762145215 20.69762463757153 21.95988046687132 20.593514274802363 22.08 20.57 C 23.26771928489228 20.347528607900376 24.090708920598566 19.257291156744913 23.979203663956408 18.054071643210936 C 23.86769840731425 16.85085212967696 22.858375125527854 15.930419539409828 21.65 15.93 Z M 22.31 18.79 C 22.245006097551546 18.869639600912606 22.13788808666137 18.901378270805992 22.04 18.869999999999997 C 21.93918297737283 18.832816143580708 21.871627215426756 18.737443303186247 21.869999999999997 18.63 L 21.869999999999997 17.919999999999998 C 21.871627215426756 17.81255669681375 21.93918297737283 17.71718385641929 22.04 17.68 C 22.137714370154388 17.642014900821884 22.248750954214724 17.67491462943235 22.31 17.759999999999998 C 22.54781713688677 18.050915590385564 22.54781713688677 18.46908440961443 22.31 18.759999999999998 Z"
                        stroke-linecap="round" />
                </g>
                <g transform="matrix(1 0 0 1 0 -0.5)">
                    <path fill="#fff" transform=" translate(-12, -11.5)"
                        d="M 24 4.25 C 24 2.5931457505076194 22.65685424949238 1.25 21 1.25 L 3 1.25 C 1.3431457505076196 1.25 0 2.5931457505076194 0 4.25 L 0 18.75 C 0 20.40685424949238 1.3431457505076196 21.75 3 21.75 L 3 21.75 C 3.5522847498307932 21.75 4 21.302284749830793 4 20.75 L 4 20.75 C 4 20.197715250169207 3.5522847498307932 19.75 3 19.75 L 3 19.75 C 2.4477152501692068 19.75 2 19.302284749830793 2 18.75 L 2 6.5 C 2 6.361928812542302 2.1119288125423017 6.25 2.25 6.25 L 21.75 6.25 C 21.888071187457697 6.25 22 6.361928812542302 22 6.5 L 22 12.75 C 22 13.302284749830793 22.447715250169207 13.75 23 13.75 L 23 13.75 C 23.552284749830793 13.75 24 13.302284749830793 24 12.75 Z M 4.350000000000001 4.25 C 4.167660723079583 4.544216930468866 3.8461375652574903 4.723217312357363 3.5000000000000013 4.723217312357363 C 3.1538624347425124 4.723217312357363 2.83233927692042 4.544216930468865 2.6500000000000012 4.25 C 2.556613342929237 4.099553443439143 2.504849611011119 3.9270076703787504 2.5000000000000013 3.75 C 2.5038925560585175 3.60888263305352 2.534428758732761 3.469773265315297 2.5900000000000007 3.34 C 2.747386505456774 3.006914992485179 3.075162001955035 2.7873389643939457 3.4430779869838806 2.7685250787958795 C 3.810993972012726 2.7497111931978133 4.15945779083962 2.9347068017553744 4.350000000000001 3.2499999999999996 C 4.549561498385582 3.5534647396049097 4.549561498385582 3.9465352603950903 4.350000000000001 4.25 Z M 7.850000000000001 4.25 C 7.667660723079583 4.544216930468866 7.34613756525749 4.723217312357363 7.000000000000001 4.723217312357363 C 6.653862434742512 4.723217312357363 6.33233927692042 4.544216930468865 6.150000000000001 4.25 C 5.95043850161442 3.9465352603950903 5.95043850161442 3.5534647396049097 6.150000000000001 3.25 C 6.33233927692042 2.9557830695311345 6.653862434742512 2.776782687642637 7.000000000000002 2.776782687642637 C 7.34613756525749 2.776782687642637 7.667660723079583 2.9557830695311345 7.850000000000001 3.25 C 8.049561498385582 3.5534647396049097 8.049561498385582 3.9465352603950903 7.850000000000001 4.25 Z M 11.350000000000001 4.25 C 11.167660723079583 4.544216930468865 10.84613756525749 4.723217312357362 10.500000000000002 4.723217312357362 C 10.153862434742514 4.723217312357362 9.83233927692042 4.544216930468865 9.650000000000002 4.25 C 9.450438501614421 3.9465352603950903 9.450438501614421 3.5534647396049097 9.650000000000002 3.25 C 9.83233927692042 2.955783069531135 10.153862434742514 2.776782687642638 10.500000000000002 2.776782687642638 C 10.84613756525749 2.776782687642638 11.167660723079583 2.955783069531135 11.350000000000001 3.25 C 11.549561498385582 3.5534647396049097 11.549561498385582 3.9465352603950903 11.350000000000001 4.25 Z"
                        stroke-linecap="round" />
                </g>
            </g>
        </symbol>

        <symbol id="icon-webpack" fill="none" viewBox="36 0 48 48">
            <path fill="#fff"
                d="M50.245 34.84h2.78l2.834-9.444h-2.7l-1.678 6.7-1.8-6.7h-2.346l-1.806 6.7-1.662-6.7h-2.7l2.818 9.444h2.78l1.753-6.05zm5.76-4.695c0 2.834 1.93 4.93 4.968 4.93 2.35 0 3.613-1.41 3.974-2.076l-1.645-1.247c-.27.398-1.01 1.156-2.295 1.156-1.392 0-2.403-.903-2.457-2.167h6.65c.017-.182.017-.36.017-.543 0-3.087-1.662-5.04-4.587-5.04-2.693 0-4.624 2.13-4.624 4.985zm2.62-1.03c.108-1.082.866-1.914 2.042-1.914 1.14 0 1.968.758 2.022 1.914zm7.533 5.726h2.35v-.974c.253.307 1.193 1.2 2.8 1.2 2.7 0 4.624-2.04 4.624-4.948 0-2.925-1.77-4.964-4.48-4.964-1.624 0-2.565.903-2.8 1.227v-4.607h-2.49V34.84zm2.42-4.695c0-1.77 1.048-2.78 2.42-2.78 1.446 0 2.42 1.14 2.42 2.78 0 1.678-1.01 2.727-2.42 2.727-1.517 0-2.42-1.23-2.42-2.727zm8.325 8.072h2.49v-4.354c.236.307 1.173 1.2 2.8 1.2 2.7 0 4.48-2.04 4.48-4.964 0-2.888-1.914-4.948-4.624-4.948-1.608 0-2.548.903-2.8 1.227v-.994h-2.35v12.824zm2.42-8.126c0-1.5.903-2.727 2.42-2.727 1.41 0 2.42 1.048 2.42 2.727 0 1.645-.974 2.78-2.42 2.78-1.372 0-2.42-1.01-2.42-2.78zm7.802 1.823c0 1.985 1.624 3.16 3.54 3.16 1.085 0 1.806-.324 2.295-.85l.162.613h2.204v-5.98c0-2.113-.903-3.7-3.937-3.7a7.05 7.05 0 0 0-3.721 1.119l.94 1.7c.704-.36 1.57-.667 2.51-.667 1.102 0 1.715.56 1.715 1.392v.613c-.344-.236-1.085-.522-2.042-.522-2.204-.003-3.667 1.26-3.667 3.12zm2.49-.074c0-.775.667-1.318 1.624-1.318s1.645.49 1.645 1.318c0 .795-.688 1.3-1.624 1.3s-1.645-.522-1.645-1.3zm11.76 1.03c-1.57 0-2.7-1.14-2.7-2.743 0-1.517.994-2.764 2.602-2.764 1.065 0 1.8.522 2.204.903l.704-2.096c-.613-.468-1.59-1.01-2.98-1.01-2.872 0-5.022 2.113-5.022 4.985s2.096 4.93 5.04 4.93c1.372 0 2.403-.576 2.942-1.01l-.667-2.04c-.418.34-1.176.846-2.133.846zm3.738 1.968h2.49v-4.877l3.16 4.877h2.925l-3.576-5.167 3.323-4.28h-2.8l-3.033 3.974v-7.583h-2.49z" />
            <path fill="#8ed6fb"
                d="M34.84 38.838l-13.23 7.485v-5.828l8.244-4.536zm.906-.82v-15.65l-4.84 2.797v10.06zm-28.53.82l13.23 7.485v-5.828L12.2 35.958zm-.906-.82v-15.65l4.84 2.797v10.06zm.568-16.665l13.57-7.676v5.633l-8.764 4.822zm28.3 0l-13.57-7.676v5.633l8.764 4.818z" />
            <path fill="#1c78c0"
                d="M20.45 39.423l-8.135-4.475v-8.86l8.135 4.696zm1.162 0l8.135-4.47v-8.864l-8.135 4.696zm-.58-8.976zm-8.166-5.382l8.166-4.488 8.166 4.488-8.166 4.714z" />
        </symbol>

        <symbol id="icon-gulp" viewBox="0 0 24 24">
            <path fill="#D44445"
                d="M15.156 19.432l.636-1.084s-1.444.591-3.86.591c-2.418 0-3.84-.568-3.84-.568l.711 1.183.252 3.729c0 .403 1.314.718 2.936.718 1.623 0 2.938-.314 2.938-.718l.229-3.835v-.016zm.615-7.046c-.769.046-1.153.903-1.539 1.805-.143.33-.63 1.737-.948 1.563-.318-.173.413-1.329.619-2.017-.237.174-1.105.849-1.329.215-.358.314-1.129.48-1.042-.329-.191.345-.621.823-1.139.614-.673-.255.395-2.411.66-2.307.266.121-.053.6-.136.794-.186.419-.398.958-.255 1.063.24.194.904-.703.919-.719.124-.165.479-1.229.763-1.107.285.134-.711 1.541-.34 1.826.076.06.383-.03.569-.239.12-.12.078-.42.479-1.378.404-.959.764-2.156 1.039-2.066s.049.703-.051.943c-.464 1.078-1.268 2.844-.89 2.71.374-.135.569-.135.943-.569.374-.434.345-1.152.599-1.137.24.014.21.254.15.418.24-.27 1.152-.868 1.363-.284.254.688-1.304 1.692-.914 1.632.375-.045.988-.434 1.258-.793l.719-6.5s-.734.6-5.361.6-5.284-.584-5.284-.584l.613 5.93c.33-.928 1.108-2.814 2.322-2.74.554.03 1.303 1.109.658 1.139-.27.015-.3-.539-.614-.614-.239-.046-.554.135-.763.345-.404.404-1.304 2.006-1.184 2.801.15 1.018 1.407-.346 1.617-.75.149-.283.254-1.138.568-1.048.33.09-.029.974-.27 1.737-.27.869-.404 1.781-.732 1.676-.33-.104.209-1.227.178-1.422-.313.299-.883 1.02-1.631.659l.374 3.699s1.019.793 4.073.793 4.118-.793 4.118-.793l.479-4.283c-.389.39-1.617 1.063-1.692.3-.059-.614 1.333-1.498.974-1.514l.06-.069zM17.346.669l-2.659 2.8-.486 1.901c1.881.12 3.189.386 3.189.694 0 .419-2.414.757-5.391.757s-5.39-.343-5.39-.763c0-.419 2.414-.764 5.391-.764.423 0 .844 0 1.264.016l.561-2.276L16.65.039c.068-.09.28-.015.474.15.194.149.299.344.239.434v.03l-.017.016zm-3.834 5.795s-.523 0-.61-.08c-.022-.025-.036-.058-.036-.09 0-.058.039-.091.09-.11l.044.075c-.021.006-.029.015-.033.023 0 .041.314.069.555.066.239-.003.531-.023.533-.064 0-.012-.023-.023-.061-.033l.045-.072c.063.02.117.058.117.121 0 .11-.141.128-.23.141-.107.015-.412.023-.412.023h-.002z" />
        </symbol>

        <symbol id="icon-postman" viewBox="0 0 24 24">
            <path fill="#EF6933"
                d="M13.527.099C6.955-.744.942 3.9.099 10.473c-.843 6.572 3.8 12.584 10.373 13.428 6.573.843 12.587-3.801 13.428-10.374C24.744 6.955 20.101.943 13.527.099zm2.471 7.485a.855.855 0 0 0-.593.25l-4.453 4.453-.307-.307-.643-.643c4.389-4.376 5.18-4.418 5.996-3.753zm-4.863 4.861l4.44-4.44a.62.62 0 1 1 .847.903l-4.699 4.125-.588-.588zm.33.694l-1.1.238a.06.06 0 0 1-.067-.032.06.06 0 0 1 .01-.073l.645-.645.512.512zm-2.803-.459l1.172-1.172.879.878-1.979.426a.074.074 0 0 1-.085-.039.072.072 0 0 1 .013-.093zm-3.646 6.058a.076.076 0 0 1-.069-.083.077.077 0 0 1 .022-.046h.002l.946-.946 1.222 1.222-2.123-.147zm2.425-1.256a.228.228 0 0 0-.117.256l.203.865a.125.125 0 0 1-.211.117h-.003l-.934-.934-.294-.295 3.762-3.758 1.82-.393.874.874c-1.255 1.102-2.971 2.201-5.1 3.268zm5.279-3.428h-.002l-.839-.839 4.699-4.125a.952.952 0 0 0 .119-.127c-.148 1.345-2.029 3.245-3.977 5.091zm3.657-6.46l-.003-.002a1.822 1.822 0 0 1 2.459-2.684l-1.61 1.613a.119.119 0 0 0 0 .169l1.247 1.247a1.817 1.817 0 0 1-2.093-.343zm2.578 0a1.714 1.714 0 0 1-.271.218h-.001l-1.207-1.207 1.533-1.533c.661.72.637 1.832-.054 2.522zM18.855 6.05a.143.143 0 0 0-.053.157.416.416 0 0 1-.053.45.14.14 0 0 0 .023.197.141.141 0 0 0 .084.03.14.14 0 0 0 .106-.05.691.691 0 0 0 .087-.751.138.138 0 0 0-.194-.033z" />
        </symbol>

        <symbol id="icon-figma" viewBox="0 0 3000 3000">
            <path fill="#0ACF83"
                d="M1083.333374,2750c230,0,416.666626-186.666748,416.666626-416.666748v-416.666626h-416.666626  c-230.000061,0-416.666687,186.666626-416.666687,416.666626S853.333313,2750,1083.333374,2750z" />
            <path fill="#A259FF"
                d="M666.666687,1500c0-230,186.666626-416.666748,416.666687-416.666748H1500v833.333374  h-416.666626C853.333313,1916.666626,666.666687,1730,666.666687,1500z" />
            <path fill="#F24E1E"
                d="M666.666687,666.666626C666.666687,436.666656,853.333313,250,1083.333374,250H1500  v833.333252h-416.666626C853.333313,1083.333252,666.666687,896.666626,666.666687,666.666626z" />
            <path fill="#FF7262"
                d="M1500,250h416.666626c230.000122,0,416.666626,186.666656,416.666626,416.666626  s-186.666504,416.666626-416.666626,416.666626H1500V250z" />
            <path fill="#1ABCFE"
                d="M2333.333252,1500c0,230-186.666504,416.666626-416.666626,416.666626S1500,1730,1500,1500  s186.666626-416.666748,416.666626-416.666748S2333.333252,1270,2333.333252,1500z" />
        </symbol>

        <symbol id="icon-ps" viewBox="0 0 512 512">
            <rect height="510.578" fill="#4FC7EC" width="510.576" x="1.207" y="0.711" rx="104.187" />
            <rect height="465.646" fill="#242238" width="465.646" x="23.669" y="23.179" rx="84" />
            <path fill="#4FC7EC"
                d="M125.389,124.051c0-1.76,0.302-2.459,1.811-2.459         c11.48-0.354,34.144-0.703,57.105-0.703c59.215,0,81.802,34.454,82.104,75.205c0,55.848-41.623,77.024-86.033,77.024         c-8.459,0-16.616,0-18.734,0v79.795c0,2.108-0.601,2.813-2.114,2.813h-32.026c-1.509,0-2.114-0.704-2.114-2.459V124.051z          M161.643,239.047c2.42,0.35,6.95,0.699,19.642,0.699c23.864,0,46.826-6.801,46.826-41.929         c0-28.102-15.406-42.536-43.805-42.536c-11.783,0-20.243,0.35-22.663,0.704V239.047z" />
            <path fill="#4FC7EC"
                d="M341.819,212.791c-14.549,0-18.405,9.099-18.405,15.773         c0,8.433,3.856,12.997,26.123,23.537c30.577,14.753,43.64,27.752,43.64,53.04c0,35.129-22.859,55.115-55.517,55.115         c-15.733,0-35.585-1.5-48.054-10.632c-1.188-0.704-1.782-1.756-1.782-3.516v-32.316c0-1.756,1.189-2.459,2.08-1.756         c15.436,11.592,32.652,14.886,48.088,14.886c13.658,0,18.406-9.103,18.406-16.829c0-9.133-3.299-14.404-24.675-24.59         c-30.577-14.754-43.306-27.432-43.306-53.074c0-28.455,21.337-51.958,56.368-51.958c18.107,0,30.871,0.485,39.186,6.102         c1.482,1.406,1.781,2.459,1.781,4.568v28.804c0,2.105-1.188,3.163-2.672,2.105         C372.393,215.028,357.255,212.791,341.819,212.791z" />
        </symbol>

        <symbol id="icon-vs-code" viewBox="0 0 32 32">
            <path fill="#2672a9"
                d="M28,25.6l-5.9,2.4l-9.7-9.6l-6.1,4.8L4,21.9V10.1l2.3-1.2l6.1,4.8L22.1,4L28,6.4V25.6z M15.7,16l6.3,5l0,0V11L15.7,16  L15.7,16z M6.3,19.7L6.3,19.7L10,16l-3.6-3.7l0,0L6.3,19.7L6.3,19.7z" />
        </symbol>

        <symbol id="icon-chat-gpt" viewBox="0 0 512 512">
            <rect fill="#10A37F" width="100%" height="100%" rx="104.187" ry="105.042" />
            <path fill="#fff" fill-rule="nonzero"
                d="M378.68 230.011a71.432 71.432 0 003.654-22.541 71.383 71.383 0 00-9.783-36.064c-12.871-22.404-36.747-36.236-62.587-36.236a72.31 72.31 0 00-15.145 1.604 71.362 71.362 0 00-53.37-23.991h-.453l-.17.001c-31.297 0-59.052 20.195-68.673 49.967a71.372 71.372 0 00-47.709 34.618 72.224 72.224 0 00-9.755 36.226 72.204 72.204 0 0018.628 48.395 71.395 71.395 0 00-3.655 22.541 71.388 71.388 0 009.783 36.064 72.187 72.187 0 0077.728 34.631 71.375 71.375 0 0053.374 23.992H271l.184-.001c31.314 0 59.06-20.196 68.681-49.995a71.384 71.384 0 0047.71-34.619 72.107 72.107 0 009.736-36.194 72.201 72.201 0 00-18.628-48.394l-.003-.004zM271.018 380.492h-.074a53.576 53.576 0 01-34.287-12.423 44.928 44.928 0 001.694-.96l57.032-32.943a9.278 9.278 0 004.688-8.06v-80.459l24.106 13.919a.859.859 0 01.469.661v66.586c-.033 29.604-24.022 53.619-53.628 53.679zm-115.329-49.257a53.563 53.563 0 01-7.196-26.798c0-3.069.268-6.146.79-9.17.424.254 1.164.706 1.695 1.011l57.032 32.943a9.289 9.289 0 009.37-.002l69.63-40.205v27.839l.001.048a.864.864 0 01-.345.691l-57.654 33.288a53.791 53.791 0 01-26.817 7.17 53.746 53.746 0 01-46.506-26.818v.003zm-15.004-124.506a53.5 53.5 0 0127.941-23.534c0 .491-.028 1.361-.028 1.965v65.887l-.001.054a9.27 9.27 0 004.681 8.053l69.63 40.199-24.105 13.919a.864.864 0 01-.813.074l-57.66-33.316a53.746 53.746 0 01-26.805-46.5 53.787 53.787 0 017.163-26.798l-.003-.003zm198.055 46.089l-69.63-40.204 24.106-13.914a.863.863 0 01.813-.074l57.659 33.288a53.71 53.71 0 0126.835 46.491c0 22.489-14.033 42.612-35.133 50.379v-67.857c.003-.025.003-.051.003-.076a9.265 9.265 0 00-4.653-8.033zm23.993-36.111a81.919 81.919 0 00-1.694-1.01l-57.032-32.944a9.31 9.31 0 00-4.684-1.266 9.31 9.31 0 00-4.684 1.266l-69.631 40.205v-27.839l-.001-.048c0-.272.129-.528.346-.691l57.654-33.26a53.696 53.696 0 0126.816-7.177c29.644 0 53.684 24.04 53.684 53.684a53.91 53.91 0 01-.774 9.077v.003zm-150.831 49.618l-24.111-13.919a.859.859 0 01-.469-.661v-66.587c.013-29.628 24.053-53.648 53.684-53.648a53.719 53.719 0 0134.349 12.426c-.434.237-1.191.655-1.694.96l-57.032 32.943a9.272 9.272 0 00-4.687 8.057v.053l-.04 80.376zm13.095-28.233l31.012-17.912 31.012 17.9v35.812l-31.012 17.901-31.012-17.901v-35.8z" />
        </symbol>

        <symbol id="icon-canva" viewBox="0 0 100 100">
            <circle cx="50" cy="51" r="49" fill="#20c4cb"></circle>
            <path fill="#ffffff"
                d="M62.7,59.2c-2,2.2-4.8,3.3-6.1,3.3c-1.5,0-2.3-0.9-2.5-2.3c-0.1-0.5,0-1.1,0.1-1.6c0.5-3.1,1.6-5.1,1.6-5.6c0-0.2-0.1-0.3-0.2-0.3c-1,0-4.4,3.5-4.9,5.8l-0.4,1.9c-0.3,1.3-1.5,2.1-2.4,2.1c-0.4,0-0.7-0.2-0.8-0.7c0-0.2,0-0.4,0-0.6l0.2-1c-1.8,1.4-3.8,2.3-4.7,2.3c-1.3,0-2-0.7-2.2-1.7c-0.8,1.1-1.9,1.7-3.1,1.7c-1.5,0-2.9-1-3.6-2.5c-1,1.1-2.2,2.2-3.6,3.1c-2.1,1.3-4.4,2.4-7.1,2.4c-2.5,0-4.7-1.3-5.8-2.4c-1.8-1.6-2.7-4.1-3-6.3c-0.9-7,3.4-16.3,10.1-20.3c1.5-0.9,3.2-1.4,4.8-1.4c3.2,0,5.6,2.3,5.9,5c0.3,2.5-0.7,4.6-3.4,5.9c-1.4,0.7-2.1,0.7-2.3,0.3c-0.1-0.2-0.1-0.6,0.2-0.8c2.6-2.1,2.6-3.9,2.3-6.4c-0.2-1.6-1.2-2.6-2.4-2.6C24.2,36.5,17,47.8,18,56c0.4,3.2,2.4,6.9,6.4,6.9c1.3,0,2.8-0.4,4-1c2.2-1.1,3.5-2,4.7-3.5c-0.3-3.8,3-8.6,7.8-8.6c2.1,0,3.8,0.8,4,2.5c0.3,2.1-1.5,2.5-2.2,2.5c-0.6,0-1.5-0.2-1.6-0.7c-0.1-0.6,1.3-0.3,1.1-1.6c-0.1-0.8-1-1.1-1.8-1.1c-3,0-4.7,4.2-4.4,6.8c0.1,1.2,0.8,2.4,1.8,2.4c0.9,0,2.2-1.3,2.6-3.1c0.3-1.3,1.5-2.1,2.4-2.1c0.5,0,0.8,0.2,0.8,0.7c0,0.2,0,0.4,0,0.6c-0.1,0.5-0.5,2.4-0.5,2.7c0,0.3,0.2,0.8,0.8,0.8c0.5,0,2.1-0.9,3.7-2.3c0.5-2.5,1.1-5.6,1.1-5.8c0.2-1,0.6-2.1,2.6-2.1c0.4,0,0.7,0.2,0.8,0.7c0,0.2,0,0.4,0,0.6L51.6,54c1.8-2.4,4.6-4.2,6.3-4.2c0.7,0,1.3,0.4,1.4,1.1c0.1,0.4-0.1,1.1-0.3,1.9c-0.6,1.6-1.3,4.1-1.7,6.2c-0.1,0.5,0.1,1.1,0.9,1.1c0.7,0,2.8-0.8,4.5-3.1c0-0.3,0-0.6,0-1c0-1.8,0.1-3.2,0.5-4.3c0.3-1.1,1.7-2.1,2.6-2.1c0.5,0,0.8,0.3,0.8,0.8c0,0.2,0,0.4-0.1,0.6c-0.6,1.9-1,3.6-1,5.3c0,1,0.2,2.5,0.4,3.3c0,0.2,0.1,0.3,0.3,0.3c0.3,0,2.3-1.9,3.7-4.3c-1.3-0.8-2-2.3-2-4.1c0-3,1.8-4.6,3.6-4.6c1.4,0,2.6,1,2.6,3c0,1.3-0.5,2.7-1.2,4.1c0,0,0.3,0,0.4,0c1.1,0,1.9-0.5,2.4-1.1c0.2-0.2,0.4-0.4,0.6-0.5c1.4-1.7,3.5-2.9,5.9-2.9c2.1,0,3.8,0.8,4,2.5c0.3,2.1-1.6,2.6-2.2,2.6c-0.6,0-1.6-0.2-1.6-0.7c-0.1-0.5,1.3-0.3,1.2-1.6c-0.1-0.8-1-1.2-1.8-1.2c-2.8,0-4.7,3.7-4.4,6.8c0.1,1.2,0.7,2.4,1.8,2.4c0.9,0,2.2-1.3,2.7-3.1c0.3-1.2,1.5-2.1,2.4-2.1c0.4,0,0.8,0.2,0.8,0.7c0,0.3-0.1,0.8-0.5,2.8c-0.2,0.8-0.2,1.6-0.2,2.1c0.2,1.2,0.7,2,1.2,2.5c0.2,0.2,0.3,0.4,0.3,0.5c0,0.3-0.2,0.6-0.6,0.6c-0.1,0-0.3,0-0.4-0.1c-2.2-0.9-3.1-2.4-3.3-3.7c-0.8,1.1-1.9,1.6-3.1,1.6c-1.9,0-3.8-1.7-4.1-3.9c-0.1-0.9,0-1.9,0.3-2.8c-0.8,0.5-1.6,0.8-2.4,0.8c-0.3,0-0.5,0-0.7,0c-1.9,2.7-3.9,4.6-5.4,5.5c-0.6,0.3-1.2,0.5-1.6,0.5c-0.3,0-0.7-0.1-0.9-0.4C63.1,61.4,62.8,60.4,62.7,59.2L62.7,59.2z M69.5,50.2c0,1.2,0.6,2.4,1.3,3.2c0.3-0.8,0.5-1.6,0.5-2.4c0-1.5-0.6-2.2-1-2.2C69.7,48.8,69.5,49.6,69.5,50.2z" />
        </symbol>

        <symbol id="icon-rxjs" viewBox="12.100000000000001 8.4 262.79999999999995 272.2">
            <path fill="#e32286"
                d="M29.6 175.3c-5.2-16.2-6.7-33.3-3.7-50.9 1.3-7.3 3.3-14.3 5.5-21.4 0 0 13.8-45.3 60.5-66 0 0 16.1-8.5 40.3-9.1 0 0-3.3-3.2-5.4-4.6-11.4-7.6-28.4-10.1-38.7.6-3.1 3.2-5.7 6.7-8.6 9.9-3.3 3.6-7.3 6.6-11.9 8.3-4 1.5-8 1.2-12.1 1.9-4.2.7-8.5 2.2-11.9 4.9-3.7 3-5.2 7-5.6 11.6-.4 3.6-.3 7.3-.5 10.9C37 82 33.6 85 26 90.9c-3.2 2.4-5.9 5.6-7.9 9-6 10.6 3.6 21.6 4.1 32.3.1 2.2-.1 4.4-.9 6.5-.8 2.3-2.4 3.8-3.7 5.7-1.8 2.5-3 5.5-2.5 8.6s2.1 6 3.6 8.7c2.9 4.8 6.5 9.1 10.3 13.2.2 0 .4.2.6.4" />
            <path fill="#e01d84"
                d="M220.4 213.7c23-10 32.8-27.3 32.8-27.3 21.5-29.3 14.2-60.2 14.2-60.2-13.7 29.8-26.2 38-26.2 38 33.7-51.3.2-82.3.2-82.3 13.7 29.2-4.5 64.8-4.5 64.8-15.3 32.2-37 43.7-37 43.7 24.2 4.5 42-11.8 42-11.8-34.7 37.5-72.3 35.7-72.3 35.7 15.8 17.7 39.5 16.2 39.5 16.2-31 7.3-60.1-3-84-22.9-4.5-3.7-8.8-7.7-12.8-12 0 0-3.6-3.8-4.3-4.8l-.1-.1c-.5 18.5 18.8 35.7 18.8 35.7-24.2-10-35.3-31.7-35.3-31.7s-16.3-27.8-4.5-59.5 47.5-38.5 47.5-38.5c29.5 14.3 54.5 18.8 54.5 18.8 52.7 8.8 49.7-17 49.7-17 .5-22.2-33-45.8-33-45.8C145.9 8.4 91.9 37 91.9 37c-46.7 20.7-60.5 66-60.5 66-2.2 7.1-4.2 14.1-5.5 21.4-5.1 29.7 2.6 57.8 19.3 82.8 26 38.8 68.2 52.2 68.2 52.2 62.5 21.2 105.2-10 105.2-10 39.3-27 47.2-58.2 47.2-58.2-31.7 24.8-45.4 22.5-45.4 22.5zM171.6 67.8c3 0 5.4 2.4 5.4 5.4s-2.4 5.4-5.4 5.4-5.4-2.4-5.4-5.4 2.4-5.4 5.4-5.4z" />
            <path fill="#b72786"
                d="M238.5 98.4c.5-22.2-33-45.8-33-45.8C145.8 8.4 91.8 37 91.8 37c-46.7 20.7-60.5 66-60.5 66-2.7 7.7-5.1 19.5-5.1 19.5-2.9 14.8-1.6 28.5-1.6 28.5 1.2 13.1 4.1 21.9 4.1 21.9 3 9.4 4.4 12.3 4.4 12.3-.1-.3-.6-2.5-.6-2.5s-4.2-20.2-.3-39.6c0 0 3.4-20.2 17.2-35.8 0 0 22.4-31.9 64.1-19.4 0 0 9 3.2 12.1 4.8 3.1 1.5 8.5 3.8 8.5 3.8 29.5 14.3 54.5 18.8 54.5 18.8 52.9 8.9 49.9-16.9 49.9-16.9zm-66.9-19.7c-3 0-5.4-2.4-5.4-5.4s2.4-5.4 5.4-5.4 5.4 2.4 5.4 5.4-2.4 5.4-5.4 5.4z" />
            <path fill="#932c87"
                d="M137.4 58.2l-34.1-10.6c-.2 0-1.2-.5-3 0 0 0-20.1 5.1-16.6 16.1 0 0 2.1 6.9 7.8 13.6l37.5-1.8z" />
        </symbol>

        <symbol id="icon-jquery" viewBox="0 0 24 24">
            <path fill="#fff"
                d="M1.534 5.874c-2.123 3.05-1.86 7.017-.237 10.256.037.079.078.154.118.229.023.052.049.1.077.149.013.028.031.057.047.083.026.052.054.102.081.152l.157.265c.029.049.057.097.09.146.055.094.12.187.177.281.026.039.05.078.079.117a6.36 6.36 0 0 0 .31.444c.078.107.156.211.24.315.027.038.057.076.085.114l.221.269c.027.031.054.067.083.099.098.118.202.233.306.349 0 .002.003.004.005.007a3.13 3.13 0 0 0 .424.44c.08.082.16.164.245.244l.101.097c.111.104.222.208.339.308.002 0 .003.002.005.003l.057.05c.102.089.205.178.31.26l.125.105c.085.068.173.133.26.2l.136.104c.093.07.192.139.287.207.035.025.07.05.106.073l.029.023.281.185.12.08c.147.094.293.183.438.271.042.021.084.044.123.068.108.062.22.125.329.183.06.034.122.063.184.094.075.042.153.083.233.125a.324.324 0 0 1 .056.023c.033.015.064.031.096.047.12.06.245.117.375.174.024.01.05.02.076.034.144.063.288.123.437.182.034.01.07.027.105.04.135.051.274.103.411.152l.05.018c.153.052.304.102.459.15.036.01.073.023.111.033.159.048.313.105.473.136 10.26 1.87 13.242-6.169 13.242-6.169-2.505 3.262-6.95 4.122-11.16 3.165-.156-.036-.312-.086-.469-.132a13.522 13.522 0 0 1-.567-.181l-.062-.024c-.136-.046-.267-.097-.4-.148a1.613 1.613 0 0 0-.11-.041c-.147-.059-.29-.12-.432-.183-.031-.01-.057-.024-.088-.036a23.41 23.41 0 0 1-.361-.17c-.037-.016-.07-.033-.106-.052-.094-.044-.188-.094-.28-.142a3.942 3.942 0 0 1-.187-.096c-.113-.06-.226-.125-.339-.187-.034-.024-.073-.044-.112-.066a15.902 15.902 0 0 1-.438-.269 2.104 2.104 0 0 1-.118-.079 6.002 6.002 0 0 1-.312-.206c-.035-.023-.067-.048-.103-.073a9.541 9.541 0 0 1-.294-.212c-.042-.034-.087-.066-.132-.1-.088-.069-.177-.135-.265-.208l-.118-.094a10.58 10.58 0 0 1-.334-.281.258.258 0 0 0-.037-.03l-.347-.316-.1-.094c-.082-.083-.166-.163-.25-.245l-.097-.1a9.07 9.07 0 0 1-.309-.323l-.015-.016c-.106-.116-.209-.234-.313-.354-.027-.031-.052-.064-.08-.097l-.226-.277a21.248 21.248 0 0 1-.34-.448C2.16 11.786 1.315 7.386 3.184 3.777M8.121 3.305c-1.539 2.209-1.452 5.163-.254 7.499a9.1 9.1 0 0 0 .677 1.132c.23.33.484.72.792.986.107.122.223.24.344.359l.09.09c.114.11.231.218.35.325l.015.013a9.855 9.855 0 0 0 .414.342c.034.023.063.05.096.073.14.108.281.212.427.315l.015.009c.062.045.128.086.198.13.028.018.06.042.09.06.106.068.21.132.317.197.017.007.032.016.048.023.09.055.188.108.282.157.033.02.065.035.099.054.067.033.133.068.197.102l.032.014c.135.066.273.128.408.19.034.013.063.024.092.038.111.048.224.094.335.137.05.017.097.037.144.052.102.038.209.073.31.108l.14.045c.146.045.294.104.448.129 7.92 1.313 9.754-4.787 9.754-4.787-1.651 2.376-4.846 3.508-8.251 2.624a8.03 8.03 0 0 1-.448-.13c-.048-.013-.09-.028-.136-.042-.104-.036-.211-.071-.312-.109l-.144-.054c-.112-.045-.226-.087-.335-.135-.034-.015-.065-.025-.091-.04-.14-.063-.281-.125-.417-.192l-.206-.107-.119-.06c-.092-.048-.177-.098-.265-.15a.62.62 0 0 1-.062-.034c-.106-.066-.216-.13-.317-.198-.034-.019-.065-.042-.097-.062l-.208-.136c-.144-.1-.285-.208-.427-.312-.032-.029-.063-.053-.094-.079-1.497-1.177-2.678-2.786-3.238-4.608-.59-1.894-.46-4.018.559-5.742M13.66 1.384c-.908 1.332-.995 2.986-.37 4.455.664 1.56 2.022 2.785 3.604 3.365.065.025.128.046.195.07l.088.027c.092.029.185.063.28.084 4.376.844 5.56-2.247 5.879-2.701-1.042 1.496-2.789 1.855-4.932 1.334a4.844 4.844 0 0 1-.516-.16 6.344 6.344 0 0 1-.617-.254 6.521 6.521 0 0 1-1.08-.66c-1.92-1.454-3.109-4.23-1.857-6.491" />
        </symbol>

        <symbol id="icon-babel" viewBox='0 0 24 24'>
            <g transform="matrix(0.31 0 0 0.31 12 12)">
                <path fill="#f4d537" transform=" translate(-31.8, -32)"
                    d="M 46.099609 0 C 44.588646 -0.031329346 42.909344 0.10092187 41.042969 0.45117188 C 25.332969 3.3961719 19.597328 8.0344688 19.361328 8.2304688 C 19.047328 8.4914687 18.923828 8.9166406 19.048828 9.3066406 C 19.173828 9.6946406 19.523641 9.9700469 19.931641 9.9980469 L 20.638672 10.046875 L 14.447266 14.167969 C 14.071266 14.417969 13.909734 14.887406 14.052734 15.316406 L 15.052734 18.316406 C 15.153734 18.621406 15.394172 18.857125 15.701172 18.953125 C 16.007172 19.052125 16.342609 18.993781 16.599609 18.800781 L 19.642578 16.519531 L 20.105469 17.447266 C 20.245469 17.727266 20.508406 17.924422 20.816406 17.982422 C 21.124406 18.041422 21.440875 17.951234 21.671875 17.740234 C 23.051875 16.489234 26.434609 13.522656 28.599609 11.972656 L 7.0976562 56.703125 C 6.9486562 57.014125 6.9693438 57.378922 7.1523438 57.669922 C 7.3353437 57.960922 7.656 58.136719 8 58.136719 L 9.5449219 58.136719 L 8.0292969 62.683594 C 7.8832969 63.123594 8.0561719 63.607563 8.4511719 63.851562 C 8.6131719 63.951563 8.7955625 64 8.9765625 64 C 9.2345625 64 9.4905469 63.900031 9.6855469 63.707031 L 15.353516 58.039062 C 15.357516 58.037062 15.361234 58.035203 15.365234 58.033203 C 50.188234 49.039203 53.953125 35.962953 53.953125 30.751953 C 53.953125 28.373953 51.988219 26.166563 50.699219 24.976562 C 52.550219 23.654563 56.249266 20.688422 58.697266 16.607422 C 60.447266 13.689422 59.964781 9.0559375 57.550781 5.5859375 C 56.013531 3.37675 52.647115 0.1357605 46.099609 0 z M 45.900391 1.9980469 C 51.693566 2.0784146 54.598781 4.8387969 55.910156 6.7246094 C 58.136156 9.9246094 58.124422 13.674172 56.982422 15.576172 C 53.933422 20.659172 48.575484 24.002156 48.521484 24.035156 C 48.239484 24.209156 48.062875 24.511797 48.046875 24.841797 C 48.031875 25.172797 48.180312 25.4895 48.445312 25.6875 C 49.421312 26.4195 51.953125 28.755 51.953125 30.75 C 51.953125 34.458 49.268031 47.247719 14.707031 56.136719 C 14.687031 56.141719 14.668437 56.147297 14.648438 56.154297 C 14.620438 56.160297 14.593406 56.168781 14.566406 56.175781 C 14.403406 56.222781 14.254766 56.309688 14.134766 56.429688 L 11.265625 59.298828 L 11.880859 57.453125 C 11.981859 57.149125 11.930188 56.813734 11.742188 56.552734 C 11.555188 56.291734 11.252641 56.136719 10.931641 56.136719 L 9.5898438 56.136719 L 31.714844 10.107422 C 31.891844 9.7374219 31.826828 9.2980937 31.548828 8.9960938 C 31.270828 8.6950937 30.835078 8.5922344 30.455078 8.7402344 C 29.919078 8.9462344 29.441406 9.1451719 29.066406 9.3261719 C 27.265406 10.192172 23.221594 13.685859 21.308594 15.380859 L 20.894531 14.552734 C 20.761531 14.287734 20.519469 14.093391 20.230469 14.025391 C 19.942469 13.958391 19.637391 14.021219 19.400391 14.199219 L 16.509766 16.365234 L 16.191406 15.40625 L 24.191406 10.082031 C 24.548406 9.8460312 24.712516 9.4071406 24.603516 8.9941406 C 24.494516 8.5801406 24.134031 8.2819531 23.707031 8.2519531 L 23.164062 8.2148438 C 26.124063 6.6438437 31.875109 4.2020625 41.412109 2.4140625 C 43.072609 2.103375 44.563504 1.9795005 45.900391 1.9980469 z M 43.373047 6.1835938 C 42.450688 6.1930938 41.515406 6.2305937 40.597656 6.2773438 L 40.201172 6.2988281 C 39.652172 6.3258281 38.970734 6.4116406 38.177734 6.5566406 C 37.860734 6.6136406 37.592125 6.8184219 37.453125 7.1074219 L 29.099609 24.568359 C 28.925609 24.930359 28.985 25.359156 29.25 25.660156 C 29.443 25.879156 29.718 26 30 26 C 30.105 26 30.210406 25.983266 30.316406 25.947266 C 31.894406 25.424266 34.815047 24.450688 37.123047 23.679688 L 39.318359 22.945312 C 42.525359 21.877313 46.087812 20.576297 47.757812 18.654297 C 48.586812 17.700297 49.642812 16.388813 50.507812 15.007812 C 50.545812 15.028813 50.585906 15.046453 50.628906 15.064453 C 50.900906 15.174453 51.453844 15.294281 52.089844 14.863281 C 53.119844 14.165281 53.955078 12.150078 53.955078 11.205078 C 53.955078 10.190078 53.130016 8.3390469 52.166016 7.6230469 C 51.544016 7.1600469 50.985031 7.2314063 50.707031 7.3164062 C 50.634031 7.3394062 50.561234 7.36825 50.490234 7.40625 C 48.789234 6.384 46.140125 6.1550937 43.373047 6.1835938 z M 43.060547 8.1894531 C 45.801141 8.1439375 49.291469 8.3344687 50.136719 9.7617188 C 50.388719 10.188719 50.913906 10.364781 51.378906 10.175781 C 51.445906 10.146781 51.507406 10.113266 51.566406 10.072266 C 51.781406 10.501266 51.951172 10.971078 51.951172 11.205078 C 51.951172 11.478078 51.702734 12.114516 51.427734 12.603516 C 51.109734 12.234516 50.687438 12.160156 50.398438 12.160156 C 50.018437 12.160156 49.670953 12.37775 49.501953 12.71875 C 48.849953 14.04475 47.722141 15.64375 46.244141 17.34375 C 44.792141 19.01475 40.819594 20.340734 38.683594 21.052734 L 36.486328 21.783203 C 35.044328 22.265203 33.360969 22.828594 31.917969 23.308594 L 39.033203 8.4375 C 39.523203 8.3605 39.948828 8.3138281 40.298828 8.2988281 L 40.695312 8.2773438 C 41.316563 8.2468438 42.147016 8.204625 43.060547 8.1894531 z M 17.408203 21.771484 C 17.019656 21.753063 16.637031 21.964391 16.457031 22.337891 C 16.217031 22.834891 16.427781 23.432875 16.925781 23.671875 L 18.728516 24.537109 C 18.868516 24.605109 19.014156 24.636719 19.160156 24.636719 C 19.532156 24.636719 19.8915 24.427359 20.0625 24.068359 C 20.3025 23.571359 20.09175 22.973375 19.59375 22.734375 L 17.791016 21.869141 C 17.667266 21.809391 17.537719 21.777625 17.408203 21.771484 z M 15.326172 26.103516 C 14.937625 26.085047 14.555 26.297172 14.375 26.669922 C 14.135 27.167922 14.34575 27.766859 14.84375 28.005859 L 16.644531 28.871094 C 16.784531 28.939094 16.932125 28.970703 17.078125 28.970703 C 17.450125 28.970703 17.806516 28.760344 17.978516 28.402344 C 18.218516 27.904344 18.009719 27.307359 17.511719 27.068359 L 15.708984 26.201172 C 15.585234 26.141422 15.455687 26.109672 15.326172 26.103516 z M 40.75 26.833984 C 37.612881 26.67582 33.016953 28.515391 26.626953 31.072266 C 26.140953 31.267266 25.918578 31.732125 25.517578 32.578125 C 25.420578 32.782125 25.282125 33.076844 25.203125 33.214844 C 25.110125 33.301844 25.034469 33.408344 24.980469 33.527344 L 19.087891 46.589844 C 18.924891 46.949844 18.991859 47.372969 19.255859 47.667969 C 19.448859 47.883969 19.721 48 20 48 C 20.104 48 20.207594 47.984172 20.308594 47.951172 C 26.405594 45.970172 32.158062 44.011797 35.539062 41.841797 C 38.930063 39.664797 42.576531 37.085266 43.894531 34.447266 C 44.966531 32.302266 45.569531 30.903734 44.894531 29.552734 C 43.989656 27.744109 42.632271 26.928883 40.75 26.833984 z M 40.083984 28.855469 C 41.575863 28.822398 42.540047 29.313641 43.107422 30.447266 C 43.340422 30.914266 42.954422 31.860734 42.107422 33.552734 C 40.857422 36.053734 36.373937 38.92825 34.460938 40.15625 C 31.680937 41.94125 26.848703 43.68775 21.845703 45.34375 L 26.726562 34.523438 C 26.923563 34.282437 27.089172 33.932547 27.326172 33.435547 C 27.410172 33.259547 27.536953 32.995172 27.626953 32.826172 C 33.646328 30.419297 37.59752 28.910586 40.083984 28.855469 z M 13.240234 30.4375 C 12.851313 30.419078 12.470266 30.630406 12.291016 31.003906 C 12.051016 31.500906 12.261766 32.098891 12.759766 32.337891 L 14.5625 33.203125 C 14.7025 33.271125 14.848141 33.302734 14.994141 33.302734 C 15.366141 33.302734 15.725484 33.093375 15.896484 32.734375 C 16.136484 32.237375 15.925734 31.639391 15.427734 31.400391 L 13.625 30.535156 C 13.501 30.475406 13.369875 30.443641 13.240234 30.4375 z M 11.158203 34.771484 C 10.769234 34.753391 10.387031 34.963938 10.207031 35.335938 C 9.9680313 35.833937 10.177781 36.432875 10.675781 36.671875 L 12.478516 37.537109 C 12.618516 37.605109 12.766109 37.636719 12.912109 37.636719 C 13.284109 37.636719 13.642453 37.428312 13.814453 37.070312 C 14.053453 36.572313 13.843703 35.973375 13.345703 35.734375 L 11.542969 34.867188 C 11.418969 34.807688 11.287859 34.777516 11.158203 34.771484 z M 9.0761719 39.103516 C 8.687625 39.085047 8.3069531 39.297172 8.1269531 39.669922 C 7.8869531 40.167922 8.09575 40.766859 8.59375 41.005859 L 10.396484 41.871094 C 10.536484 41.939094 10.682125 41.970703 10.828125 41.970703 C 11.200125 41.970703 11.559469 41.760344 11.730469 41.402344 C 11.970469 40.904344 11.759719 40.307359 11.261719 40.068359 L 9.4609375 39.201172 C 9.3371875 39.141422 9.2056875 39.109672 9.0761719 39.103516 z M 6.9941406 43.4375 C 6.6053594 43.419219 6.2222187 43.630406 6.0429688 44.003906 C 5.8029688 44.500906 6.0137187 45.098891 6.5117188 45.337891 L 8.3144531 46.203125 C 8.4544531 46.271125 8.6000937 46.302734 8.7460938 46.302734 C 9.1180937 46.302734 9.4774375 46.093375 9.6484375 45.734375 C 9.8884375 45.237375 9.6776875 44.639391 9.1796875 44.400391 L 7.3769531 43.535156 C 7.2532031 43.475656 7.1237344 43.443594 6.9941406 43.4375 z M 32.537109 46.001953 C 32.407375 46.008047 32.276844 46.040109 32.152344 46.099609 C 30.185344 47.044609 28.000203 47.954641 25.658203 48.806641 C 25.139203 48.994641 24.872547 49.567891 25.060547 50.087891 C 25.208547 50.493891 25.591 50.744141 26 50.744141 C 26.113 50.744141 26.228797 50.726547 26.341797 50.685547 C 28.746797 49.812547 30.993531 48.876344 33.019531 47.902344 C 33.517531 47.663344 33.725328 47.065359 33.486328 46.568359 C 33.307078 46.194859 32.926313 45.983672 32.537109 46.001953 z M 4.9101562 47.771484 C 4.5212344 47.753203 4.1401875 47.964391 3.9609375 48.337891 C 3.7209375 48.834891 3.9297344 49.432875 4.4277344 49.671875 L 6.2304688 50.537109 C 6.3704687 50.605109 6.5180625 50.636719 6.6640625 50.636719 C 7.0360625 50.636719 7.3934531 50.427359 7.5644531 50.068359 C 7.8044531 49.571359 7.5956563 48.973375 7.0976562 48.734375 L 5.2949219 47.867188 C 5.1709219 47.807688 5.0397969 47.777578 4.9101562 47.771484 z M 22.404297 50.001953 C 22.275109 49.990172 22.140766 50.004375 22.009766 50.046875 C 20.958766 50.381875 19.865562 50.712109 18.726562 51.037109 C 18.195562 51.189109 17.887062 51.742438 18.039062 52.273438 C 18.165062 52.713437 18.565 53 19 53 C 19.09 53 19.183391 52.987891 19.275391 52.962891 C 20.434391 52.631891 21.548188 52.294125 22.617188 51.953125 C 23.143187 51.785125 23.433625 51.221313 23.265625 50.695312 C 23.139625 50.300812 22.791859 50.037297 22.404297 50.001953 z"
                    stroke-linecap="round" />
            </g>
        </symbol>

        <symbol id="icon-ang-mat" viewBox="0 0 179.2 192.7">
            <polygon fill="#ffa726"
                points="89.4 0 89.4 0 89.4 0 0 32 13.5 150.4 89.4 192.7 89.4 192.7 89.4 192.7 165.4 150.4 179.2 32 89.4 0" />
            <polygon fill="#fb8c00"
                points="89.4 0 89.4 21.4 89.4 21.4 89.4 118.7 89.4 118.7 89.4 192.7 89.4 192.7 165.4 150.4 179.2 32 89.4 0" />
            <polygon fill="#ffe0b2" points="102.9 146.3 39.6 115.8 75.9 93.4 139.6 124 102.9 146.3" />
            <polygon fill="#fff3e0" points="102.9 122.8 39.6 92.2 75.9 69.9 139.6 100.5 102.9 122.8" />
            <polygon fill="#fff" points="102.9 99.3 39.6 68.7 75.9 46.3 139.6 76.9 102.9 99.3" />
        </symbol>

        <symbol id="icon-npm" viewBox="0 0 24 24">
            <path fill="#C63A37"
                d="M0 7.334v8h6.666v1.332H12v-1.332h12v-8H0zm6.666 6.664H5.334v-4H3.999v4H1.335V8.667h5.331v5.331zm4 0v1.336H8.001V8.667h5.334v5.332h-2.669v-.001zm12.001 0h-1.33v-4h-1.336v4h-1.335v-4h-1.33v4h-2.671V8.667h8.002v5.331zM10.665 10H12v2.667h-1.335V10z" />
        </symbol>

        <symbol id="icon-date-fns" viewBox="0 -12 164 164">
            <path fill="#8C2B54"
                d="M0.4,67.8 C0.4,54.7439347 2.799976,42.4320578 7.6,30.864 C12.400024,19.2959422 19.3119549,9.04804464 28.336,0.12 L46.48,0.12 C27.6639059,18.7440931 18.256,41.3038675 18.256,67.8 C18.256,94.2961325 27.6639059,116.855907 46.48,135.48 L28.336,135.48 C19.3119549,126.551955 12.400024,116.304058 7.6,104.736 C2.799976,93.1679422 0.4,80.8560653 0.4,67.8 L0.4,67.8 Z M162.6,67.8 C162.6,80.8560653 160.200024,93.1679422 155.4,104.736 C150.599976,116.304058 143.688045,126.551955 134.664,135.48 L116.52,135.48 C135.336094,116.855907 144.744,94.2961325 144.744,67.8 C144.744,41.3038675 135.336094,18.7440931 116.52,0.12 L134.664,0.12 C143.688045,9.04804464 150.599976,19.2959422 155.4,30.864 C160.200024,42.4320578 162.6,54.7439347 162.6,67.8 L162.6,67.8 Z" />
            <g transform="translate(67.000000, 9.000000)">
                <rect fill="#8C2B54" x="0" y="0" width="12" height="69" />
                <rect fill="#8C2B54"
                    transform="translate(32.500000, 40.500000) scale(-1, 1) rotate(-45.000000) translate(-32.500000, -40.500000) "
                    x="27" y="6" width="11" height="69" />
            </g>
        </symbol>

        <symbol id="icon-git" viewBox="0 0 24 24">
            <path fill="#EF473B"
                d="M23.5615234,10.9320221c-0.0009766,0-0.0009766-0.0004883-0.0009766-0.0004883L13.0615234,0.4256744   c-0.5664063-0.567749-1.5576172-0.5672607-2.1220703-0.0004883L0.4384766,10.9320221C0.15625,11.2158966,0,11.5926056,0,11.9927521   c0,0.4006348,0.15625,0.777771,0.4394531,1.0611572l10.4990234,10.5058594   C11.2216797,23.8436432,11.5986328,24.0000153,12,24.0000153s0.7783203-0.1563721,1.0605469-0.4397583l10.5-10.5063477   C23.84375,12.7705231,24,12.3933868,24,11.9927521C24,11.5926056,23.84375,11.2158966,23.5615234,10.9320221z" />
            <path fill="#010101" opacity="0.1"
                d="M23.6809692,12.6898956l-10.609375,10.6157837   C12.786438,23.5919952,12.4055176,23.7500153,12,23.7500153s-0.786438-0.15802-1.0725708-0.4448242L0.3190308,12.6898956   c-0.1239624-0.1240845-0.218689-0.2683716-0.2921143-0.4222412c0.0545654,0.2959595,0.1953125,0.5689087,0.4125366,0.7862549   l10.4990234,10.5058594C11.2216797,23.8436432,11.5986328,24.0000153,12,24.0000153s0.7783203-0.1563721,1.0605469-0.4397583   l10.5-10.5063477c0.2172241-0.2173462,0.3580322-0.4902954,0.4125977-0.7862549   C23.8997192,12.421524,23.8049316,12.5658112,23.6809692,12.6898956z" />
            <path
                d="M17,10.0000153c-0.3748779,0-0.7219849,0.1100464-1.0222168,0.2902832l-2.2680664-2.2680664   C13.8898926,7.7220612,14,7.3749542,14,7.0000153c0-1.1030273-0.8974609-2-2-2   c-0.369873,0-0.7122803,0.1077881-1.0098267,0.2835693L8.536438,2.8295441L7.8295898,3.5367584l2.4536743,2.4539795   C10.1077271,6.2881012,10,6.6303253,10,7.0000153c0,0.9293213,0.6400146,1.7053833,1.5,1.9289551v6.1420898   C10.6400146,15.294632,10,16.070694,10,17.0000153c0,1.1030273,0.8974609,2,2,2s2-0.8969727,2-2   c0-0.9293213-0.6400146-1.7053833-1.5-1.9289551V8.9289703c0.1767578-0.0459595,0.3425293-0.1158447,0.4968872-0.2055054   l2.2796631,2.2796631C15.1053467,11.2978058,15,11.6353302,15,12.0000153c0,1.1030273,0.8974609,2,2,2s2-0.8969727,2-2   S18.1025391,10.0000153,17,10.0000153z" />
            <path opacity="0.2"
                d="M0.4384766,11.1820221L10.9394531,0.6751862   c0.5644531-0.5667725,1.5556641-0.5672607,2.1220703,0.0004883l10.4990234,10.5058594c0,0,0,0.0004883,0.0009766,0.0004883   c0.2523193,0.2537842,0.3969727,0.583252,0.4262695,0.935791C23.991272,12.075943,24,12.0352325,24,11.9927521   c0-0.4001465-0.15625-0.7768555-0.4384766-1.06073c-0.0009766,0-0.0009766-0.0004883-0.0009766-0.0004883L13.0615234,0.4256744   c-0.5664063-0.567749-1.5576172-0.5672607-2.1220703-0.0004883L0.4384766,10.9320221C0.15625,11.2158966,0,11.5926056,0,11.9927521   c0,0.0424194,0.008728,0.0831299,0.012207,0.124939C0.0415649,11.765152,0.1862183,11.4357452,0.4384766,11.1820221z" />
            <path fill="url(#SVGID_1_)"
                d="M18.5488281,10.7503815C18.8265381,11.0938263,19,11.5248566,19,12.0000153   c0,1.1030273-0.8974609,2-2,2s-2-0.8969727-2-2c0-0.3646851,0.1053467-0.7022095,0.2765503-0.9968872L12.9968872,8.723465   C12.8425293,8.8131256,12.6767578,8.8830109,12.5,8.9289703v6.1420898c0.8599854,0.2235718,1.5,0.9996338,1.5,1.9289551   c0,1.1030273-0.8974609,2-2,2c-0.5114746,0-0.9738159-0.1986694-1.3278809-0.5157471l3.7318115,3.7318115l7.8029175-7.8076782   L18.5488281,10.7503815z M13.7097168,8.0222321l2.2680664,2.2680664C16.2780151,10.1100616,16.6251221,10.0000153,17,10.0000153   c0.4750977,0,0.90625,0.1735229,1.2498169,0.451355l-4.6776733-4.6777344L13.5697021,5.77565   C13.835144,6.1150665,14,6.5366364,14,7.0000153C14,7.3749542,13.8898926,7.7220612,13.7097168,8.0222321z" />
            <path fill="url(#SVGID_2_)"
                d="M23.5615234,10.9320221c-0.0009766,0-0.0009766-0.0004883-0.0009766-0.0004883L13.0615234,0.4256744   c-0.5664063-0.567749-1.5576172-0.5672607-2.1220703-0.0004883L0.4384766,10.9320221C0.15625,11.2158966,0,11.5926056,0,11.9927521   c0,0.4006348,0.15625,0.777771,0.4394531,1.0611572l10.4990234,10.5058594   C11.2216797,23.8436432,11.5986328,24.0000153,12,24.0000153s0.7783203-0.1563721,1.0605469-0.4397583l10.5-10.5063477   C23.84375,12.7705231,24,12.3933868,24,11.9927521C24,11.5926056,23.84375,11.2158966,23.5615234,10.9320221z" />
        </symbol>

        <symbol id="icon-github" viewBox="0 0 512 512">
            <path fill="#fff"
                d="M256,32C132.3,32,32,134.8,32,261.7c0,101.5,64.2,187.5,153.2,217.9c11.2,2.1,15.3-5,15.3-11.1   c0-5.5-0.2-19.9-0.3-39.1c-62.3,13.9-75.5-30.8-75.5-30.8c-10.2-26.5-24.9-33.6-24.9-33.6c-20.3-14.3,1.5-14,1.5-14   c22.5,1.6,34.3,23.7,34.3,23.7c20,35.1,52.4,25,65.2,19.1c2-14.8,7.8-25,14.2-30.7c-49.7-5.8-102-25.5-102-113.5   c0-25.1,8.7-45.6,23-61.6c-2.3-5.8-10-29.2,2.2-60.8c0,0,18.8-6.2,61.6,23.5c17.9-5.1,37-7.6,56.1-7.7c19,0.1,38.2,2.6,56.1,7.7   c42.8-29.7,61.5-23.5,61.5-23.5c12.2,31.6,4.5,55,2.2,60.8c14.3,16.1,23,36.6,23,61.6c0,88.2-52.4,107.6-102.3,113.3   c8,7.1,15.2,21.1,15.2,42.5c0,30.7-0.3,55.5-0.3,63c0,6.1,4,13.3,15.4,11C415.9,449.1,480,363.1,480,261.7   C480,134.8,379.7,32,256,32z" />
        </symbol>

        <symbol id="icon-mongodb" viewBox="0 0 32 32">
            <path fill="#599636"
                d="M15.9.087l.854 1.604c.192.296.4.558.645.802.715.715 1.394 1.464 2.004 2.266 1.447 1.9 2.423 4.01 3.12 6.292.418 1.394.645 2.824.662 4.27.07 4.323-1.412 8.035-4.4 11.12-.488.488-1.01.94-1.57 1.342-.296 0-.436-.227-.558-.436-.227-.383-.366-.82-.436-1.255-.105-.523-.174-1.046-.14-1.586v-.244C16.057 24.21 15.796.21 15.9.087z" />
            <path fill="#6cac48"
                d="M15.9.034c-.035-.07-.07-.017-.105.017.017.35-.105.662-.296.96-.21.296-.488.523-.767.767-1.55 1.342-2.77 2.963-3.747 4.776-1.3 2.44-1.97 5.055-2.16 7.808-.087.993.314 4.497.627 5.508.854 2.684 2.388 4.933 4.375 6.885.488.47 1.01.906 1.55 1.325.157 0 .174-.14.21-.244a4.78 4.78 0 0 0 .157-.68l.35-2.614L15.9.034z" />
            <path fill="#c2bfbf"
                d="M16.754 28.845c.035-.4.227-.732.436-1.063-.21-.087-.366-.26-.488-.453-.105-.174-.192-.383-.26-.575-.244-.732-.296-1.5-.366-2.248v-.453c-.087.07-.105.662-.105.75a17.37 17.37 0 0 1-.314 2.353c-.052.314-.087.627-.28.906 0 .035 0 .07.017.122.314.924.4 1.865.453 2.824v.35c0 .418-.017.33.33.47.14.052.296.07.436.174.105 0 .122-.087.122-.157l-.052-.575v-1.604c-.017-.28.035-.558.07-.82z" />
        </symbol>

        <symbol id="icon-firebase" viewBox="0 0 512 512">
            <path fill="#FFA000"
                d="M297.036,205.578l-36.334,33.809l-33.716-68.005l17.446-39.108c4.416-7.84,11.621-7.855,16.037,0   L297.036,205.578z" />
            <polygon fill="#F57F17" points="260.702,239.386 124.924,365.697 226.986,171.381  " />
            <path fill="#FFCA28"
                d="M336.776,153.901c6.491-6.239,13.202-4.111,14.912,4.729l35.342,205.375L269.873,434.22   c-4.1,2.264-14.957,3.246-14.957,3.246s-9.91-1.185-13.687-3.281L124.92,365.69L336.776,153.901z" />
            <path fill="#FFA000"
                d="M226.986,171.381L124.924,365.697l45.46-283.998c1.674-8.847,6.71-9.699,11.203-1.89L226.986,171.381z" />
        </symbol>
    </defs>
</svg>