<svg aria-hidden="true" version="1.1" xmlns="http://www.w3.org/2000/svg" xmlns:xlink="http://www.w3.org/1999/xlink">
    <defs>
        <symbol id="icon-telegram" viewBox="0 0 512 512">
            <path
                d="M256,0C114.615,0,0,114.615,0,256S114.615,512,256,512,512,397.385,512,256,397.385,0,256,0ZM389.059,161.936,343.591,379a16.007,16.007,0,0,1-25.177,9.593l-66.136-48.861-40.068,37.8a5.429,5.429,0,0,1-7.74-.294l-.861-.946,6.962-67.375L336.055,194.266a3.358,3.358,0,0,0-4.061-5.317L171.515,290.519,102.4,267.307a9.393,9.393,0,0,1-.32-17.694L372.5,147.744A12.441,12.441,0,0,1,389.059,161.936Z" />
        </symbol>

        <symbol id="icon-linked-in" viewBox="0 0 512 512">
            <path
                d="M256,0c141.29,0 256,114.71 256,256c0,141.29 -114.71,256 -256,256c-141.29,0 -256,-114.71 -256,-256c0,-141.29 114.71,-256 256,-256Zm-80.037,399.871l0,-199.921l-66.464,0l0,199.921l66.464,0Zm239.62,0l0,-114.646c0,-61.409 -32.787,-89.976 -76.509,-89.976c-35.255,0 -51.047,19.389 -59.889,33.007l0,-28.306l-66.447,0c0.881,18.757 0,199.921 0,199.921l66.446,0l0,-111.65c0,-5.976 0.43,-11.95 2.191,-16.221c4.795,-11.935 15.737,-24.299 34.095,-24.299c24.034,0 33.663,18.34 33.663,45.204l0,106.966l66.45,0Zm-272.403,-296.321c-22.74,0 -37.597,14.95 -37.597,34.545c0,19.182 14.405,34.544 36.717,34.544l0.429,0c23.175,0 37.6,-15.362 37.6,-34.544c-0.43,-19.595 -14.424,-34.545 -37.149,-34.545Z" />
        </symbol>

        <symbol id="icon-instagram" viewBox="0 0 512 512">
            <path
                d="M256,0c141.29,0 256,114.71 256,256c0,141.29 -114.71,256 -256,256c-141.29,0 -256,-114.71 -256,-256c0,-141.29 114.71,-256 256,-256Zm0,96c-43.453,0 -48.902,0.184 -65.968,0.963c-17.03,0.777 -28.661,3.482 -38.839,7.437c-10.521,4.089 -19.444,9.56 -28.339,18.455c-8.895,8.895 -14.366,17.818 -18.455,28.339c-3.955,10.177 -6.659,21.808 -7.437,38.838c-0.778,17.066 -0.962,22.515 -0.962,65.968c0,43.453 0.184,48.902 0.962,65.968c0.778,17.03 3.482,28.661 7.437,38.838c4.089,10.521 9.56,19.444 18.455,28.34c8.895,8.895 17.818,14.366 28.339,18.455c10.178,3.954 21.809,6.659 38.839,7.436c17.066,0.779 22.515,0.963 65.968,0.963c43.453,0 48.902,-0.184 65.968,-0.963c17.03,-0.777 28.661,-3.482 38.838,-7.436c10.521,-4.089 19.444,-9.56 28.34,-18.455c8.895,-8.896 14.366,-17.819 18.455,-28.34c3.954,-10.177 6.659,-21.808 7.436,-38.838c0.779,-17.066 0.963,-22.515 0.963,-65.968c0,-43.453 -0.184,-48.902 -0.963,-65.968c-0.777,-17.03 -3.482,-28.661 -7.436,-38.838c-4.089,-10.521 -9.56,-19.444 -18.455,-28.339c-8.896,-8.895 -17.819,-14.366 -28.34,-18.455c-10.177,-3.955 -21.808,-6.66 -38.838,-7.437c-17.066,-0.779 -22.515,-0.963 -65.968,-0.963Zm0,28.829c42.722,0 47.782,0.163 64.654,0.933c15.6,0.712 24.071,3.318 29.709,5.509c7.469,2.902 12.799,6.37 18.397,11.969c5.6,5.598 9.067,10.929 11.969,18.397c2.191,5.638 4.798,14.109 5.509,29.709c0.77,16.872 0.933,21.932 0.933,64.654c0,42.722 -0.163,47.782 -0.933,64.654c-0.711,15.6 -3.318,24.071 -5.509,29.709c-2.902,7.469 -6.369,12.799 -11.969,18.397c-5.598,5.6 -10.928,9.067 -18.397,11.969c-5.638,2.191 -14.109,4.798 -29.709,5.509c-16.869,0.77 -21.929,0.933 -64.654,0.933c-42.725,0 -47.784,-0.163 -64.654,-0.933c-15.6,-0.711 -24.071,-3.318 -29.709,-5.509c-7.469,-2.902 -12.799,-6.369 -18.398,-11.969c-5.599,-5.598 -9.066,-10.928 -11.968,-18.397c-2.191,-5.638 -4.798,-14.109 -5.51,-29.709c-0.77,-16.872 -0.932,-21.932 -0.932,-64.654c0,-42.722 0.162,-47.782 0.932,-64.654c0.712,-15.6 3.319,-24.071 5.51,-29.709c2.902,-7.468 6.369,-12.799 11.968,-18.397c5.599,-5.599 10.929,-9.067 18.398,-11.969c5.638,-2.191 14.109,-4.797 29.709,-5.509c16.872,-0.77 21.932,-0.933 64.654,-0.933Zm0,49.009c-45.377,0 -82.162,36.785 -82.162,82.162c0,45.377 36.785,82.162 82.162,82.162c45.377,0 82.162,-36.785 82.162,-82.162c0,-45.377 -36.785,-82.162 -82.162,-82.162Zm0,135.495c-29.455,0 -53.333,-23.878 -53.333,-53.333c0,-29.455 23.878,-53.333 53.333,-53.333c29.455,0 53.333,23.878 53.333,53.333c0,29.455 -23.878,53.333 -53.333,53.333Zm104.609,-138.741c0,10.604 -8.597,19.199 -19.201,19.199c-10.603,0 -19.199,-8.595 -19.199,-19.199c0,-10.604 8.596,-19.2 19.199,-19.2c10.604,0 19.201,8.596 19.201,19.2Z" />
        </symbol>

        <symbol id="icon-gmail" viewBox="0 0 512 512">
            <path
                d="M256,0c141.29,0 256,114.71 256,256c0,141.29 -114.71,256 -256,256c-141.29,0 -256,-114.71 -256,-256c0,-141.29 114.71,-256 256,-256 M384,128H128c-17.602,0-32,14.406-32,32v192c0,17.594,14.398,32,32,32h256     c17.594,0,32-14.406,32-32V160C416,142.406,401.594,128,384,128L384,128z M384,352h-32V211.203L256,272l-96-60.797V352h-32V160     h19.203L256,227.203L364.797,160H384V352L384,352z" />
        </symbol>

        <symbol id="icon-github" viewBox="0 0 32 32">
            <path clip-rule="evenodd" fill-rule="evenodd"
                d="M16.003,0C7.17,0,0.008,7.162,0.008,15.997  c0,7.067,4.582,13.063,10.94,15.179c0.8,0.146,1.052-0.328,1.052-0.752c0-0.38,0.008-1.442,0-2.777  c-4.449,0.967-5.371-2.107-5.371-2.107c-0.727-1.848-1.775-2.34-1.775-2.34c-1.452-0.992,0.109-0.973,0.109-0.973  c1.605,0.113,2.451,1.649,2.451,1.649c1.427,2.443,3.743,1.737,4.654,1.329c0.146-1.034,0.56-1.739,1.017-2.139  c-3.552-0.404-7.286-1.776-7.286-7.906c0-1.747,0.623-3.174,1.646-4.292C7.28,10.464,6.73,8.837,7.602,6.634  c0,0,1.343-0.43,4.398,1.641c1.276-0.355,2.645-0.532,4.005-0.538c1.359,0.006,2.727,0.183,4.005,0.538  c3.055-2.07,4.396-1.641,4.396-1.641c0.872,2.203,0.323,3.83,0.159,4.234c1.023,1.118,1.644,2.545,1.644,4.292  c0,6.146-3.74,7.498-7.304,7.893C19.479,23.548,20,24.508,20,26c0,2,0,3.902,0,4.428c0,0.428,0.258,0.901,1.07,0.746  C27.422,29.055,32,23.062,32,15.997C32,7.162,24.838,0,16.003,0z" />
        </symbol>

        <symbol id="icon-codewars" viewBox='0 0 24 24'>
            <path
                d="M.76 12.2l-.08-.04c-.18-.1-.32-.25-.42-.44-.14-.26-.2-.5-.2-.75l.02-.13c0-.2.05-.38.14-.55l.08-.15c.04-.08.1-.15.15-.22.06-.07.07-.16.05-.24l-.05-.16c-.06-.2-.1-.4-.1-.6L.32 8.8c0-.22.06-.44.2-.6l.1-.13c.07-.1.18-.16.3-.2.1-.03.17-.13.18-.25l.02-.34c0-.27.13-.52.33-.7l.24-.18c.05-.05.1-.1.14-.18.05-.06.06-.14.05-.2-.02-.1 0-.13.05-.14.16.06.26.04.33-.04l.13-.17.36-.4c.1-.1.14-.28.08-.42l-.12-.26c-.02-.06 0-.13.05-.15.13 0 .22.05.26.13l.04.07c.06.12.2.18.3.13.22-.08.4-.1.57-.1h.32c.22 0 .4-.15.44-.38.04-.28.14-.5.28-.65.15-.17.32-.3.52-.4.26-.14.42-.34.47-.6.07-.32.24-.55.47-.7l.76-.43.22-.13c.13-.08.25-.18.35-.3l.2-.24c.1-.1.2-.17.32-.2.1-.03.24-.05.36-.04l.4.03c.2 0 .36.05.52.12l.1.05c.1.04.2.02.25-.05L10 .7l.43-.45c.1-.1.22-.14.35-.12.13.02.26.07.38.13.18.1.33.14.5.14h.1c.22 0 .44.03.66.08l.15.04c.15.04.3-.02.4-.14.03-.05.1-.06.14-.02.03.02.04.04.05.07.02.2.14.35.3.4l.16.05c.17.05.32.16.42.3.1.15.22.3.36.4l.1.1c.1.1.24.14.38.13h.59c.24 0 .47.04.7.14.22.1.45.12.66.04.22-.07.45-.1.68-.07l.43.07c.2.02.4.12.52.27l.05.05c.1.1.2.23.3.37.06.13.2.2.34.2h.62c.15 0 .3.03.42.1.13.1.24.2.34.3l.1.13c.12.14.18.33.17.53 0 .16.12.3.28.3l.2.02c.14 0 .26.1.33.23l.1.2.26.58c.04.1.05.2.04.28 0 .1.03.18.1.22l.1.07c.13.1.2.25.18.42l-.07.47-.02.2c-.02.1.03.23.12.3.15.1.22.23.23.38v.2c0 .1-.02.22-.1.3-.06.08-.1.18-.1.3l.03.23c0 .16.1.3.2.4.14.1.22.26.24.42.04.25.05.45.05.65v.23c0 .08 0 .16.03.24.02.07.07.14.13.18l.2.15c.2.13.34.3.42.53.1.22.13.45.13.68v.08c0 .18-.02.37-.08.54-.05.18-.04.35.03.5.08.14.13.3.15.47.04.2.02.4-.05.56l-.02.07c-.05.12-.13.23-.23.32-.1.1-.2.16-.26.23-.06.06-.1.16-.07.25l.03.14c.05.2.05.4 0 .58v.08c-.04.15-.1.28-.16.4-.07.13-.17.23-.3.3l-.15.1c-.07.04-.12.13-.12.22 0 .1-.04.2-.1.26l-.15.2c-.1.13-.23.24-.37.3-.14.1-.26.2-.35.3-.1.12-.18.26-.22.4-.04.18-.18.28-.33.28h-.54c-.14 0-.27.1-.33.22-.07.16-.14.27-.23.37-.1.1-.16.22-.2.36-.02.12-.12.2-.22.16-.13-.06-.26 0-.32.1-.12.2-.24.35-.37.48l-.07.06c-.13.1-.3.18-.45.18-.18 0-.27.08-.3.2-.03.1-.05.23-.06.34-.02.12-.06.23-.1.33l-.05.06c-.1.15-.18.3-.28.43l-.04.06c-.13.17-.3.3-.5.35-.24.08-.45.1-.66.1h-.14c-.1 0-.2.06-.27.16l-.06.1-.06.12-.13.22c-.1.18-.25.3-.45.36-.2.05-.43.07-.64.06l-.16-.02c-.14 0-.27-.04-.4-.1-.1-.04-.24 0-.3.1-.1.14-.22.22-.35.26l-.3.1c-.2.05-.42.05-.63 0l-.16-.05c-.1 0-.2-.05-.28-.1-.1-.05-.2-.07-.3-.06l-.13.02c-.2.02-.38 0-.56-.05l-.27-.06c-.12-.04-.23-.12-.3-.23-.05-.1-.16-.18-.3-.2H9.9c-.2-.03-.38-.1-.5-.25L9 22.5l-.14-.12-.22-.16-.13-.1c-.15-.1-.33-.18-.52-.2l-.6-.1c-.06 0-.1-.02-.16-.03L7 21.74c-.1-.02-.2-.1-.27-.2-.06-.1-.17-.14-.27-.1-.2.08-.36.1-.52.13H5.8c-.26.02-.5-.02-.74-.13-.24-.1-.4-.25-.55-.44-.12-.17-.3-.3-.52-.34l-.28-.06c-.2-.04-.4-.12-.58-.24-.2-.14-.3-.27-.38-.43-.08-.15-.13-.32-.14-.5v-.08c-.02-.2-.16-.38-.35-.43-.23-.07-.4-.17-.55-.3-.14-.13-.22-.32-.22-.52l.02-.44c0-.17-.05-.32-.17-.43-.12-.12-.2-.27-.2-.43l-.03-.36c-.02-.26-.07-.52-.13-.78-.06-.23.03-.46.22-.57l.07-.05c.1-.07.14-.2.08-.32l-.08-.1c-.1-.1-.2-.17-.3-.2-.08-.02-.1-.1-.1-.15l.1-.12c.06-.07.05-.18 0-.24-.08-.08-.12-.18-.13-.28l-.02-.7c0-.14.02-.28.06-.42.04-.12 0-.26-.12-.32zm9.9-1.32c.07-.07.06-.2 0-.25-.1-.08-.17-.17-.23-.27l-.1-.16c-.07-.13-.16-.24-.26-.34l-.02-.02c-.1-.08-.17-.18-.23-.3-.05-.1-.05-.2 0-.3l.06-.1c.06-.1.1-.24.1-.36v-.04c0-.1-.04-.2-.1-.3-.04-.08-.08-.18-.1-.28V8.1c-.03-.12 0-.25.08-.35.08-.13.14-.25.17-.4v-.02c.04-.1.02-.23-.04-.33s-.08-.2-.04-.32l.07-.2c.06-.18.15-.34.27-.48l.14-.15.1-.12.06-.06c.06-.06.07-.16.02-.24-.05-.1-.08-.2-.06-.3l.02-.14c.03-.2.1-.4.23-.56l.04-.04c.15-.2.34-.33.56-.4l.27-.1c.12-.04.2-.17.2-.3 0-.16.05-.3.14-.43l.05-.05c.1-.17.22-.34.3-.52l.07-.13c.02-.03.03-.07.03-.1 0-.17-.1-.32-.26-.33L11.76 2c-.25-.02-.5 0-.74 0l-.85.1c-.13 0-.23.1-.24.24 0 .14-.1.26-.22.3l-.36.1-.1.03-.3.1c-.22.07-.4.23-.5.45l-.08.13c-.1.22-.27.4-.48.53-.2.13-.3.34-.32.58v.1c-.02.2-.08.4-.2.54l-.05.08c-.08.1-.1.23-.05.34.05.12.08.25.07.38v.53c0 .14-.1.26-.2.3-.14.05-.23.16-.27.3l-.05.2c-.04.2.03.4.2.52.16.12.26.3.3.52v.18c.03.2.14.4.32.5.18.12.32.3.4.5l.05.16c.08.22.26.35.46.37h.06c.18 0 .34.1.44.26.1.16.26.27.44.3l.28.08c.17.05.33.14.46.27l.02.02c.1.08.26.07.35-.04l.07-.08zm1.14-.92c.1.06.2.03.24-.06l.03-.05c.07-.14.16-.28.26-.4l.2-.3c.03 0 .04-.02.05-.04l.24-.32c.1-.1.22-.17.36-.17.13 0 .24-.07.3-.2.04-.14.1-.27.22-.38l.05-.06c.1-.1.2-.15.3-.2.13-.02.25-.04.37-.04h.3c.12 0 .22-.05.28-.15.06-.1.15-.17.25-.22l.1-.04c.16-.07.34-.12.52-.14l.2-.02c.12 0 .25 0 .37.07.1.07.23.06.33-.02l.07-.04c.15-.1.32-.18.5-.2h.02c.2-.04.38-.04.58-.03h.1c.2.03.37.1.5.25l.03.04c.1.1.26.18.4.18h.17c.05 0 .1-.02.13-.07.03-.03.08-.06.13-.06h.1c.14 0 .27.04.4.08l.17.07c.16.05.33.1.5.12h.12c.08 0 .13-.05.13-.12 0-.1-.02-.2-.07-.28L20.68 7c-.08-.13-.14-.27-.2-.4l-.02-.05c-.05-.1-.05-.2 0-.3V6.2c.02-.08-.02-.17-.1-.2L20.28 6c-.16-.05-.3-.14-.4-.27l-.1-.1c-.1-.1-.16-.25-.2-.4-.05-.13-.16-.23-.3-.23h-.42c-.15-.02-.28-.1-.37-.22l-.04-.05c-.07-.1-.13-.22-.17-.34-.05-.1-.16-.16-.26-.13l-.12.04c-.2.07-.4.1-.6.08l-.16-.02c-.17 0-.33-.07-.46-.17l-.1-.07c-.08-.06-.16-.1-.25-.14-.1-.04-.18-.02-.24.05l-.05.06c-.1.1-.24.18-.38.2l-.54.03c-.1 0-.2.05-.27.12-.08.07-.17.12-.27.14h-.02c-.1 0-.2.07-.3.14v.02c-.1.1-.23.15-.36.15l-.04.02c-.12 0-.24 0-.36.03h-.12c-.17.03-.3.17-.34.35l-.04.23c-.03.16-.1.3-.2.43-.1.12-.22.2-.37.2h-.15-.02c-.1.02-.2.13-.18.25.02.17 0 .32-.03.47l-.04.17c-.04.15-.14.27-.27.32l-.06.03h-.02c-.06.04-.1.13-.05.2.06.1.08.2.07.3l-.03.32c0 .12-.05.23-.1.33-.06.1-.06.2-.02.3l.1.22c.05.1.06.2.03.32-.03.1-.05.2-.04.3 0 .1.06.2.14.24l.02.02zm7.9 7.23c.1.1.25.14.37.06l.2-.13c.1-.07.18-.17.22-.3v-.02l.1-.3.06-.1.04-.1.04-.07c.04-.08.1-.14.2-.17l.04-.02c.08-.02.13-.1.13-.18 0-.1.05-.18.1-.25l.08-.07.2-.26v-.02c.06-.08.1-.17.12-.27.02-.1 0-.2-.04-.3l-.02-.04c-.04-.1-.06-.17-.07-.26l-.03-.28-.03-.3c0-.1.04-.2.1-.3.07-.08.12-.18.16-.28v-.04l.02-.02c.02-.1-.03-.2-.12-.2-.1-.05-.2-.13-.23-.25l-.03-.06c-.05-.18-.08-.36-.08-.54l.02-.5v-.03c0-.17-.14-.3-.3-.3h-.02c-.2 0-.36-.06-.5-.2l-.08-.1-.2-.23-.26-.3c-.1-.14-.2-.26-.33-.38-.1-.1-.25-.2-.4-.22l-.2-.03c-.1-.02-.23-.07-.34-.14-.08-.06-.2-.04-.28.04l-.13.14-.06.04c-.07.02-.14-.02-.17-.1-.04-.12-.04-.26.02-.38v-.06c0-.07-.06-.12-.12-.1h-.16c-.18 0-.36-.02-.53-.1l-.1-.04c-.1-.05-.22-.08-.33-.08-.1 0-.2.02-.3.08l-.04.03c-.12.08-.26.12-.4.13h-.33c-.15 0-.3.05-.4.13-.13.08-.27.13-.42.16l-.27.04c-.12.03-.25.08-.36.17-.1.1-.24.16-.37.2l-.05.02c-.16.05-.3.15-.4.3l-.12.12c-.07.1-.07.22 0 .32.06.1.18.13.3.1l.15-.06c.08-.03.17 0 .24.04.06.05.15.08.24.07l.25-.03c.14 0 .28 0 .42.04.15.05.28.1.4.2s.25.14.4.16c.15.02.3.05.44.1l.1.02c.1.03.18.1.24.2.05.08.1.2.1.3v.03c0 .12.1.2.2.2h.06c.16 0 .33.02.5.07l.07.03c.1.04.2.1.27.2.08.1.13.2.16.3l.03.14c.03.15.04.3.04.46v.05c0 .1.07.2.18.24.1.02.22.06.33.12l.05.02c.13.08.26.18.36.3l.05.07c.13.15.2.34.2.53v.07c0 .15-.03.3-.08.44-.04.12 0 .26.13.3l.07.05c.15.06.28.17.38.3.1.15.14.32.14.5v.3c-.02.1-.05.18-.1.25s-.05.17 0 .24l.06.1zm-6.4-5.12h-.02c-.04 0-.06.05-.05.1l.04.2c.04.16.06.32.08.48.02.16.1.3.22.4h.04c.15.12.24.3.25.48v.5c-.02.1 0 .2.06.28l.05.05c.1.12.14.26.15.4l.03.55c0 .13-.08.24-.2.26l-.1.02c-.07 0-.1.08-.1.15 0 .08.03.17.06.25v.02c.03.1.04.2.03.3l-.04.27c-.04.2-.1.38-.2.56l-.07.12c-.05.1-.12.16-.2.2-.1.04-.17.12-.2.22l-.08.36c-.05.2-.14.4-.26.6h-.02c-.12.16-.27.3-.45.4l-.12.08-.3.15c-.1.04-.16.13-.18.24l-.05.33c-.03.2-.1.37-.24.5l-.13.15-.15.15L11 21c-.12.14-.3.2-.5.17l-.36-.07-.33-.04h-.09c-.04.04-.05.1-.02.16.07.12.18.2.3.2l.22.04c.1 0 .22.05.32.1.1.07.2.12.32.15h.02c.13.05.27.06.4.05l.15-.02c.17-.02.33 0 .47.06l.12.04c.05.02.13 0 .18-.05.06-.06.12-.1.2-.13l.08-.02c.13-.04.26-.06.4-.06h.08c.12 0 .23.02.33.08l.04.02c.07.03.15 0 .2-.06.03-.07.1-.14.17-.2l.25-.17.16-.1.08-.05c.1-.07.24-.1.36-.1l.36-.03c.14-.02.26-.12.3-.26.04-.15.1-.3.2-.43s.2-.24.3-.34c.13-.1.26-.15.4-.16h.08c.16-.03.28-.18.27-.34v-.02V18.77c.02-.1.06-.23.12-.33l.2-.3.08-.1c.06-.05.1-.12.17-.2l.1-.13c.06-.1.06-.23-.02-.32-.1-.1-.15-.24-.17-.38v-.04c-.02-.16-.02-.33.03-.5v-.05c.05-.13.12-.26.2-.38.08-.1.07-.24-.03-.32l-.17-.15c-.14-.12-.22-.3-.24-.48l-.02-.2c0-.06 0-.13-.02-.2l-.02-.15c-.02-.17-.12-.3-.26-.4l-.07-.02c-.1-.06-.2-.15-.28-.27-.08-.1-.12-.24-.15-.38l-.03-.17c0-.06-.04-.1-.1-.13l-.16-.05-.32-.1c-.1-.02-.2-.1-.27-.17h-.02c-.06-.08-.16-.08-.22-.02l-.1.1c-.02.03-.04.04-.07.03-.06 0-.1-.05-.08-.1.02-.16-.04-.32-.17-.42l-.13-.1-.3-.2c-.08-.03-.2 0-.24.1l-.04.06c0 .02-.03.03-.04.04-.04 0-.1 0-.1-.05l-.03-.05c-.03-.06-.1-.1-.16-.12zm-1.2 1l-.05-.05c-.05-.04-.1-.03-.15.02-.07.12-.13.25-.16.38v.02c-.03.13-.15.22-.27.2h-.1-.02c-.14 0-.25.12-.25.26 0 .18-.06.36-.17.5l-.06.06c-.1.13-.25.22-.4.27l-.08.02c-.1.03-.18.1-.2.22 0 .1-.06.2-.14.28l-.1.08c-.12.13-.3.2-.48.22l-.5.05c-.16 0-.3.1-.4.25-.1.15-.25.25-.4.27l-.22.02c-.16.02-.33.02-.5-.02l-.1-.02-.27-.07c-.1-.03-.18 0-.24.07l-.1.13c-.13.15-.32.22-.5.2l-.65-.08c-.1 0-.18-.05-.27-.1-.1-.06-.17-.13-.24-.2l-.25-.3c-.03-.02-.08-.03-.13-.02l-.14.06-.56.14c-.1.03-.23 0-.33-.06-.1-.08-.22-.1-.34-.1H3.2c-.12.03-.2.16-.16.28l.04.2c.03.1.02.22-.03.32s-.04.2.03.3l.06.08c.08.12.2.22.3.32.1.1.2.2.28.33l.15.27c.08.14.2.22.36.22.15 0 .3.05.42.15l.3.28c.08.07.2.08.28.02l.05-.02c.06 0 .1.04.1.1v.05c0 .13.1.25.23.3l.45.1c.16.05.32.1.47.2h.08c.08 0 .15-.07.14-.16v-.35c0-.1.04-.2.12-.24l.05-.02c.05.02.1.06.08.1v.17c0 .13.04.25.13.34.1.1.23.12.34.08.12-.05.24-.06.37-.05l.37.02c.18.02.35 0 .5-.07.18-.06.33-.14.47-.25l.06-.04.3-.27c.1-.1.23-.15.35-.15h.4c.2-.02.38-.2.4-.4l.04-.2c0-.13.06-.25.15-.35.1-.1.2-.16.3-.2l.12-.05c.17-.07.3-.22.36-.4l.06-.24c.05-.2.15-.4.3-.53l.02-.02c.12-.1.14-.3.06-.44l-.03-.07c-.07-.1-.08-.25-.03-.38.05-.14.1-.26.18-.38l.1-.14c.04-.08.04-.2-.02-.27-.06-.08-.1-.18-.1-.28l-.02-.14v-.34c.02-.1 0-.23-.03-.33l-.04-.12zm-1.43-.76v-.03c0-.1-.06-.16-.14-.16h-.26c-.1.02-.2.02-.28 0h-.45c-.23 0-.45-.04-.67-.1l-.24-.06-.2-.06-.45-.15c-.24-.07-.42-.23-.53-.45l-.05-.1c-.07-.15-.22-.23-.37-.2-.17 0-.34 0-.5-.08l-.12-.05c-.23-.1-.4-.3-.4-.57l-.04-.27c-.03-.14-.12-.27-.24-.32-.14-.06-.27-.14-.4-.23l-.05-.03c-.15-.12-.28-.28-.35-.47l-.02-.06c-.05-.16-.06-.33-.02-.5l.02-.06c.04-.13.05-.26.05-.4 0-.12-.05-.24-.14-.33l-.14-.13c-.16-.13-.26-.32-.27-.53-.02-.22-.02-.43.02-.64V6.3v-.03c0-.12-.1-.2-.2-.2H4.2c-.13 0-.24.08-.3.2-.05.14-.13.25-.22.36l-.04.05-.2.2-.1.1c-.1.1-.16.25-.18.4-.02.15-.06.3-.12.44l-.02.05c-.05.12-.13.23-.23.3-.1.08-.17.2-.17.32l-.02.46c0 .2-.03.4-.1.6l-.02.08c-.05.13 0 .27.12.33l.42.18.04.02c.03 0 .04.02.05.05.03.04 0 .1-.03.1l-.1.05c-.06.02-.1.08-.12.15l-.02.1v.02l-.1.56c-.02.08-.02.17-.02.26 0 .08.05.15.12.18l.22.1c.1.06.22.13.3.2l.1.08c.03.04.08.08.12.1l.04.04c.07.06.12.14.14.23l.1.45c0 .12.1.22.2.25l.16.05s.03 0 .05.02l.2.06c.16.05.3.14.42.26.12.1.24.23.34.37l.04.04c.08.1.2.15.32.12s.25-.04.38-.04h.15c.1 0 .23.03.34.1.1.06.23.1.35.15h.03c.12.05.25.03.35-.04.1-.08.23-.12.36-.12l.47.03c.1 0 .2-.02.25-.1h.02l.17-.16.05-.05c.08-.1.2-.14.32-.15h.45c.12 0 .23-.1.28-.2.05-.1.15-.18.27-.2l.2-.04c.08 0 .15-.07.18-.16.03-.1.08-.18.15-.24l.16-.16c.1-.1.15-.2.17-.32z" />
        </symbol>
    </defs>
</svg>